G04 EAGLE Gerber RS-274X export*
G75*
%MOMM*%
%FSLAX34Y34*%
%LPD*%
%INBottom Copper*%
%IPPOS*%
%AMOC8*
5,1,8,0,0,1.08239X$1,22.5*%
G01*
%ADD10C,1.800000*%
%ADD11C,2.000000*%
%ADD12R,1.524000X1.524000*%
%ADD13C,1.524000*%
%ADD14R,2.200000X5.000000*%
%ADD15P,1.649562X8X292.500000*%
%ADD16C,1.308000*%
%ADD17C,2.250000*%
%ADD18C,1.500000*%
%ADD19C,0.756400*%
%ADD20C,0.609600*%
%ADD21C,0.812800*%
%ADD22C,0.254000*%
%ADD23C,0.406400*%

G36*
X824062Y10176D02*
X824062Y10176D01*
X824181Y10183D01*
X824219Y10196D01*
X824260Y10201D01*
X824370Y10244D01*
X824483Y10281D01*
X824518Y10303D01*
X824555Y10318D01*
X824651Y10387D01*
X824752Y10451D01*
X824780Y10481D01*
X824813Y10504D01*
X824889Y10596D01*
X824970Y10683D01*
X824990Y10718D01*
X825015Y10749D01*
X825066Y10857D01*
X825124Y10961D01*
X825134Y11001D01*
X825151Y11037D01*
X825173Y11154D01*
X825203Y11269D01*
X825207Y11329D01*
X825211Y11349D01*
X825209Y11370D01*
X825213Y11430D01*
X825213Y23115D01*
X837484Y23115D01*
X837602Y23130D01*
X837721Y23137D01*
X837759Y23150D01*
X837799Y23155D01*
X837910Y23198D01*
X838023Y23235D01*
X838058Y23257D01*
X838095Y23272D01*
X838191Y23342D01*
X838292Y23405D01*
X838320Y23435D01*
X838352Y23459D01*
X838428Y23550D01*
X838510Y23637D01*
X838529Y23672D01*
X838555Y23703D01*
X838606Y23811D01*
X838663Y23915D01*
X838674Y23955D01*
X838691Y23991D01*
X838713Y24108D01*
X838743Y24223D01*
X838747Y24284D01*
X838751Y24304D01*
X838749Y24324D01*
X838753Y24384D01*
X838753Y25655D01*
X840024Y25655D01*
X840142Y25670D01*
X840261Y25677D01*
X840299Y25690D01*
X840339Y25695D01*
X840450Y25739D01*
X840563Y25775D01*
X840598Y25797D01*
X840635Y25812D01*
X840731Y25882D01*
X840832Y25945D01*
X840860Y25975D01*
X840892Y25999D01*
X840968Y26090D01*
X841050Y26177D01*
X841069Y26212D01*
X841095Y26244D01*
X841146Y26351D01*
X841203Y26455D01*
X841214Y26495D01*
X841231Y26531D01*
X841253Y26648D01*
X841283Y26763D01*
X841287Y26824D01*
X841291Y26844D01*
X841289Y26864D01*
X841293Y26924D01*
X841293Y53195D01*
X844550Y53195D01*
X844668Y53210D01*
X844787Y53217D01*
X844825Y53230D01*
X844866Y53235D01*
X844976Y53278D01*
X845089Y53315D01*
X845124Y53337D01*
X845161Y53352D01*
X845257Y53421D01*
X845358Y53485D01*
X845386Y53515D01*
X845419Y53538D01*
X845495Y53630D01*
X845576Y53717D01*
X845596Y53752D01*
X845621Y53783D01*
X845672Y53891D01*
X845730Y53995D01*
X845740Y54035D01*
X845757Y54071D01*
X845779Y54188D01*
X845809Y54303D01*
X845813Y54363D01*
X845817Y54383D01*
X845815Y54404D01*
X845819Y54464D01*
X845819Y93236D01*
X846564Y93981D01*
X892066Y93981D01*
X892811Y93236D01*
X892811Y54464D01*
X892826Y54346D01*
X892833Y54227D01*
X892846Y54189D01*
X892851Y54148D01*
X892894Y54038D01*
X892931Y53925D01*
X892953Y53890D01*
X892968Y53853D01*
X893038Y53756D01*
X893101Y53656D01*
X893131Y53628D01*
X893154Y53595D01*
X893246Y53519D01*
X893333Y53438D01*
X893368Y53418D01*
X893399Y53393D01*
X893507Y53342D01*
X893611Y53284D01*
X893651Y53274D01*
X893687Y53257D01*
X893804Y53235D01*
X893919Y53205D01*
X893979Y53201D01*
X893999Y53197D01*
X894020Y53199D01*
X894080Y53195D01*
X898607Y53195D01*
X898607Y26924D01*
X898622Y26806D01*
X898629Y26687D01*
X898642Y26649D01*
X898647Y26609D01*
X898690Y26498D01*
X898727Y26385D01*
X898749Y26350D01*
X898764Y26313D01*
X898834Y26217D01*
X898897Y26116D01*
X898927Y26088D01*
X898951Y26056D01*
X899042Y25980D01*
X899129Y25898D01*
X899164Y25879D01*
X899195Y25853D01*
X899303Y25802D01*
X899407Y25745D01*
X899447Y25734D01*
X899483Y25717D01*
X899600Y25695D01*
X899715Y25665D01*
X899776Y25661D01*
X899796Y25657D01*
X899816Y25659D01*
X899876Y25655D01*
X901147Y25655D01*
X901147Y24384D01*
X901162Y24266D01*
X901169Y24147D01*
X901182Y24109D01*
X901187Y24069D01*
X901231Y23958D01*
X901267Y23845D01*
X901289Y23810D01*
X901304Y23773D01*
X901374Y23677D01*
X901437Y23576D01*
X901467Y23548D01*
X901491Y23515D01*
X901582Y23440D01*
X901669Y23358D01*
X901704Y23338D01*
X901736Y23313D01*
X901843Y23262D01*
X901947Y23204D01*
X901987Y23194D01*
X902023Y23177D01*
X902140Y23155D01*
X902255Y23125D01*
X902316Y23121D01*
X902336Y23117D01*
X902356Y23119D01*
X902416Y23115D01*
X914687Y23115D01*
X914687Y11430D01*
X914702Y11312D01*
X914709Y11193D01*
X914722Y11155D01*
X914727Y11114D01*
X914770Y11004D01*
X914807Y10891D01*
X914829Y10856D01*
X914844Y10819D01*
X914913Y10723D01*
X914977Y10622D01*
X915007Y10594D01*
X915030Y10561D01*
X915122Y10485D01*
X915209Y10404D01*
X915244Y10384D01*
X915275Y10359D01*
X915383Y10308D01*
X915487Y10250D01*
X915527Y10240D01*
X915563Y10223D01*
X915680Y10201D01*
X915795Y10171D01*
X915855Y10167D01*
X915875Y10163D01*
X915896Y10165D01*
X915956Y10161D01*
X950994Y10161D01*
X951138Y10179D01*
X951283Y10194D01*
X951296Y10199D01*
X951309Y10201D01*
X951445Y10254D01*
X951581Y10305D01*
X951593Y10313D01*
X951605Y10318D01*
X951723Y10403D01*
X951843Y10486D01*
X951852Y10497D01*
X951862Y10504D01*
X951955Y10616D01*
X952051Y10727D01*
X952057Y10739D01*
X952065Y10749D01*
X952127Y10881D01*
X952192Y11012D01*
X952195Y11025D01*
X952201Y11037D01*
X952228Y11179D01*
X952259Y11323D01*
X952258Y11336D01*
X952261Y11349D01*
X952252Y11494D01*
X952246Y11640D01*
X952242Y11654D01*
X952241Y11667D01*
X952196Y11805D01*
X952154Y11945D01*
X952147Y11957D01*
X952143Y11969D01*
X952065Y12092D01*
X951990Y12217D01*
X951980Y12227D01*
X951973Y12238D01*
X951867Y12338D01*
X951763Y12440D01*
X951747Y12450D01*
X951741Y12456D01*
X951726Y12464D01*
X951629Y12529D01*
X945676Y15966D01*
X940526Y21116D01*
X936884Y27423D01*
X934999Y34458D01*
X934999Y41742D01*
X936884Y48777D01*
X940526Y55084D01*
X945676Y60234D01*
X951983Y63876D01*
X959018Y65761D01*
X966302Y65761D01*
X973337Y63876D01*
X979644Y60234D01*
X984794Y55084D01*
X988231Y49131D01*
X988319Y49015D01*
X988404Y48898D01*
X988415Y48889D01*
X988423Y48878D01*
X988537Y48788D01*
X988649Y48695D01*
X988662Y48689D01*
X988672Y48681D01*
X988806Y48621D01*
X988937Y48559D01*
X988950Y48557D01*
X988963Y48551D01*
X989107Y48527D01*
X989250Y48499D01*
X989263Y48500D01*
X989276Y48498D01*
X989422Y48510D01*
X989567Y48519D01*
X989580Y48523D01*
X989593Y48524D01*
X989731Y48572D01*
X989869Y48617D01*
X989881Y48624D01*
X989894Y48629D01*
X990015Y48709D01*
X990138Y48787D01*
X990147Y48797D01*
X990159Y48805D01*
X990256Y48912D01*
X990356Y49019D01*
X990363Y49031D01*
X990372Y49041D01*
X990439Y49170D01*
X990510Y49297D01*
X990513Y49311D01*
X990519Y49323D01*
X990553Y49465D01*
X990589Y49605D01*
X990590Y49624D01*
X990592Y49632D01*
X990592Y49649D01*
X990599Y49766D01*
X990599Y421640D01*
X990584Y421758D01*
X990577Y421877D01*
X990564Y421915D01*
X990559Y421956D01*
X990516Y422066D01*
X990479Y422179D01*
X990457Y422214D01*
X990442Y422251D01*
X990373Y422347D01*
X990309Y422448D01*
X990279Y422476D01*
X990256Y422509D01*
X990164Y422585D01*
X990077Y422666D01*
X990042Y422686D01*
X990011Y422711D01*
X989903Y422762D01*
X989799Y422820D01*
X989759Y422830D01*
X989723Y422847D01*
X989606Y422869D01*
X989491Y422899D01*
X989431Y422903D01*
X989411Y422907D01*
X989390Y422905D01*
X989330Y422909D01*
X916435Y422909D01*
X916385Y422903D01*
X916336Y422905D01*
X916228Y422883D01*
X916119Y422869D01*
X916073Y422851D01*
X916024Y422841D01*
X915926Y422793D01*
X915824Y422752D01*
X915784Y422723D01*
X915739Y422701D01*
X915655Y422630D01*
X915566Y422566D01*
X915535Y422527D01*
X915497Y422495D01*
X915434Y422405D01*
X915363Y422321D01*
X915342Y422276D01*
X915314Y422235D01*
X915275Y422132D01*
X915228Y422033D01*
X915219Y421984D01*
X915201Y421938D01*
X915189Y421828D01*
X915168Y421721D01*
X915171Y421671D01*
X915166Y421622D01*
X915181Y421513D01*
X915188Y421403D01*
X915203Y421356D01*
X915210Y421307D01*
X915262Y421154D01*
X916179Y418942D01*
X916179Y416718D01*
X915328Y414664D01*
X913756Y413092D01*
X911702Y412241D01*
X632714Y412241D01*
X632596Y412226D01*
X632477Y412219D01*
X632439Y412206D01*
X632398Y412201D01*
X632288Y412158D01*
X632175Y412121D01*
X632140Y412099D01*
X632103Y412084D01*
X632007Y412015D01*
X631906Y411951D01*
X631878Y411921D01*
X631845Y411898D01*
X631769Y411806D01*
X631688Y411719D01*
X631668Y411684D01*
X631643Y411653D01*
X631592Y411545D01*
X631534Y411441D01*
X631524Y411401D01*
X631507Y411365D01*
X631485Y411248D01*
X631455Y411133D01*
X631451Y411073D01*
X631447Y411053D01*
X631449Y411032D01*
X631445Y410972D01*
X631445Y402702D01*
X629808Y401065D01*
X249134Y401065D01*
X249105Y401062D01*
X249076Y401064D01*
X248948Y401042D01*
X248819Y401025D01*
X248791Y401015D01*
X248762Y401009D01*
X248644Y400956D01*
X248523Y400908D01*
X248499Y400891D01*
X248472Y400879D01*
X248371Y400798D01*
X248266Y400722D01*
X248247Y400699D01*
X248224Y400680D01*
X248146Y400577D01*
X248063Y400477D01*
X248050Y400450D01*
X248033Y400426D01*
X247962Y400282D01*
X247954Y400263D01*
X246167Y398476D01*
X243833Y397509D01*
X106178Y397509D01*
X106128Y397503D01*
X106079Y397505D01*
X105971Y397483D01*
X105862Y397469D01*
X105816Y397451D01*
X105767Y397441D01*
X105669Y397393D01*
X105566Y397352D01*
X105526Y397323D01*
X105482Y397301D01*
X105398Y397230D01*
X105309Y397166D01*
X105277Y397127D01*
X105240Y397095D01*
X105176Y397005D01*
X105106Y396921D01*
X105085Y396876D01*
X105056Y396835D01*
X105017Y396732D01*
X104971Y396633D01*
X104961Y396584D01*
X104944Y396538D01*
X104932Y396428D01*
X104911Y396321D01*
X104914Y396271D01*
X104908Y396222D01*
X104924Y396113D01*
X104931Y396003D01*
X104946Y395956D01*
X104953Y395907D01*
X105005Y395754D01*
X106025Y393292D01*
X106025Y368708D01*
X104270Y364472D01*
X101028Y361230D01*
X96792Y359475D01*
X92208Y359475D01*
X87972Y361230D01*
X84730Y364472D01*
X82975Y368708D01*
X82975Y393292D01*
X84730Y397528D01*
X87972Y400770D01*
X92208Y402525D01*
X96520Y402525D01*
X96638Y402540D01*
X96757Y402547D01*
X96795Y402560D01*
X96836Y402565D01*
X96946Y402608D01*
X97059Y402645D01*
X97094Y402667D01*
X97131Y402682D01*
X97227Y402751D01*
X97328Y402815D01*
X97356Y402845D01*
X97389Y402868D01*
X97465Y402960D01*
X97546Y403047D01*
X97566Y403082D01*
X97591Y403113D01*
X97642Y403221D01*
X97700Y403325D01*
X97710Y403365D01*
X97727Y403401D01*
X97749Y403518D01*
X97779Y403633D01*
X97783Y403693D01*
X97787Y403713D01*
X97785Y403734D01*
X97789Y403794D01*
X97789Y417830D01*
X97774Y417948D01*
X97767Y418067D01*
X97754Y418105D01*
X97749Y418146D01*
X97706Y418256D01*
X97669Y418369D01*
X97647Y418404D01*
X97632Y418441D01*
X97563Y418537D01*
X97499Y418638D01*
X97469Y418666D01*
X97446Y418699D01*
X97354Y418775D01*
X97267Y418856D01*
X97232Y418876D01*
X97201Y418901D01*
X97093Y418952D01*
X96989Y419010D01*
X96949Y419020D01*
X96913Y419037D01*
X96796Y419059D01*
X96681Y419089D01*
X96621Y419093D01*
X96601Y419097D01*
X96580Y419095D01*
X96520Y419099D01*
X66047Y419099D01*
X63713Y420066D01*
X61926Y421853D01*
X61813Y422126D01*
X61798Y422151D01*
X61789Y422179D01*
X61720Y422289D01*
X61655Y422402D01*
X61635Y422423D01*
X61619Y422448D01*
X61524Y422537D01*
X61434Y422630D01*
X61409Y422646D01*
X61387Y422666D01*
X61274Y422729D01*
X61163Y422797D01*
X61135Y422805D01*
X61109Y422820D01*
X60983Y422852D01*
X60859Y422890D01*
X60830Y422892D01*
X60801Y422899D01*
X60640Y422909D01*
X11430Y422909D01*
X11312Y422894D01*
X11193Y422887D01*
X11155Y422874D01*
X11114Y422869D01*
X11004Y422826D01*
X10891Y422789D01*
X10856Y422767D01*
X10819Y422752D01*
X10723Y422682D01*
X10622Y422619D01*
X10594Y422589D01*
X10561Y422566D01*
X10485Y422474D01*
X10404Y422387D01*
X10384Y422352D01*
X10359Y422321D01*
X10308Y422213D01*
X10250Y422109D01*
X10240Y422069D01*
X10223Y422033D01*
X10201Y421916D01*
X10171Y421801D01*
X10167Y421740D01*
X10163Y421720D01*
X10165Y421700D01*
X10161Y421640D01*
X10161Y319338D01*
X10178Y319200D01*
X10191Y319062D01*
X10198Y319043D01*
X10201Y319022D01*
X10252Y318893D01*
X10299Y318762D01*
X10310Y318746D01*
X10318Y318727D01*
X10399Y318614D01*
X10477Y318499D01*
X10493Y318486D01*
X10504Y318469D01*
X10612Y318380D01*
X10716Y318289D01*
X10734Y318280D01*
X10749Y318267D01*
X10875Y318207D01*
X10999Y318144D01*
X11019Y318140D01*
X11037Y318131D01*
X11174Y318105D01*
X11309Y318074D01*
X11330Y318075D01*
X11349Y318071D01*
X11488Y318080D01*
X11627Y318084D01*
X11647Y318090D01*
X11667Y318091D01*
X11799Y318134D01*
X11933Y318173D01*
X11950Y318183D01*
X11969Y318189D01*
X12087Y318264D01*
X12207Y318334D01*
X12228Y318353D01*
X12238Y318359D01*
X12252Y318374D01*
X12328Y318441D01*
X12516Y318629D01*
X14272Y319905D01*
X16206Y320890D01*
X18271Y321561D01*
X18961Y321670D01*
X18961Y309380D01*
X18976Y309262D01*
X18983Y309143D01*
X18996Y309105D01*
X19001Y309065D01*
X19044Y308954D01*
X19081Y308841D01*
X19103Y308807D01*
X19118Y308769D01*
X19188Y308673D01*
X19251Y308572D01*
X19281Y308544D01*
X19304Y308512D01*
X19396Y308436D01*
X19483Y308354D01*
X19518Y308335D01*
X19549Y308309D01*
X19657Y308258D01*
X19761Y308201D01*
X19801Y308190D01*
X19837Y308173D01*
X19954Y308151D01*
X20069Y308121D01*
X20130Y308117D01*
X20150Y308113D01*
X20170Y308115D01*
X20230Y308111D01*
X21501Y308111D01*
X21501Y306840D01*
X21516Y306722D01*
X21523Y306603D01*
X21536Y306565D01*
X21541Y306524D01*
X21585Y306414D01*
X21621Y306301D01*
X21643Y306266D01*
X21658Y306229D01*
X21728Y306133D01*
X21791Y306032D01*
X21821Y306004D01*
X21845Y305971D01*
X21936Y305896D01*
X22023Y305814D01*
X22058Y305794D01*
X22090Y305769D01*
X22197Y305718D01*
X22302Y305660D01*
X22341Y305650D01*
X22377Y305633D01*
X22494Y305611D01*
X22609Y305581D01*
X22670Y305577D01*
X22690Y305573D01*
X22710Y305575D01*
X22770Y305571D01*
X35060Y305571D01*
X34951Y304881D01*
X34280Y302816D01*
X33295Y300882D01*
X32019Y299126D01*
X30484Y297591D01*
X28728Y296315D01*
X26794Y295330D01*
X25083Y294774D01*
X25056Y294761D01*
X25027Y294754D01*
X24912Y294693D01*
X24795Y294638D01*
X24772Y294619D01*
X24746Y294605D01*
X24650Y294518D01*
X24550Y294436D01*
X24532Y294411D01*
X24510Y294391D01*
X24439Y294283D01*
X24363Y294178D01*
X24352Y294151D01*
X24336Y294126D01*
X24293Y294003D01*
X24246Y293883D01*
X24242Y293853D01*
X24232Y293825D01*
X24222Y293696D01*
X24206Y293567D01*
X24209Y293538D01*
X24207Y293508D01*
X24229Y293380D01*
X24245Y293252D01*
X24256Y293224D01*
X24262Y293194D01*
X24315Y293076D01*
X24362Y292956D01*
X24380Y292932D01*
X24392Y292905D01*
X24473Y292803D01*
X24549Y292698D01*
X24572Y292679D01*
X24591Y292656D01*
X24694Y292578D01*
X24794Y292496D01*
X24821Y292483D01*
X24845Y292465D01*
X24989Y292394D01*
X26068Y291947D01*
X28337Y289678D01*
X29565Y286714D01*
X29565Y283506D01*
X28337Y280542D01*
X26068Y278273D01*
X23104Y277045D01*
X19896Y277045D01*
X16932Y278273D01*
X14663Y280542D01*
X13435Y283506D01*
X13435Y286714D01*
X14663Y289678D01*
X16932Y291947D01*
X18011Y292394D01*
X18037Y292409D01*
X18065Y292418D01*
X18175Y292487D01*
X18287Y292551D01*
X18308Y292572D01*
X18334Y292588D01*
X18423Y292683D01*
X18515Y292773D01*
X18531Y292798D01*
X18551Y292820D01*
X18614Y292934D01*
X18682Y293044D01*
X18690Y293072D01*
X18705Y293099D01*
X18737Y293224D01*
X18775Y293348D01*
X18777Y293378D01*
X18784Y293407D01*
X18784Y293536D01*
X18790Y293665D01*
X18784Y293695D01*
X18784Y293725D01*
X18752Y293850D01*
X18726Y293977D01*
X18713Y294004D01*
X18706Y294033D01*
X18643Y294146D01*
X18586Y294263D01*
X18567Y294285D01*
X18553Y294312D01*
X18464Y294406D01*
X18380Y294505D01*
X18356Y294522D01*
X18335Y294544D01*
X18226Y294613D01*
X18120Y294688D01*
X18092Y294698D01*
X18067Y294714D01*
X17917Y294774D01*
X16206Y295330D01*
X14272Y296315D01*
X12516Y297591D01*
X12328Y297779D01*
X12218Y297865D01*
X12111Y297953D01*
X12092Y297962D01*
X12076Y297974D01*
X11949Y298030D01*
X11823Y298089D01*
X11803Y298093D01*
X11784Y298101D01*
X11647Y298123D01*
X11510Y298149D01*
X11490Y298147D01*
X11470Y298151D01*
X11332Y298138D01*
X11193Y298129D01*
X11174Y298123D01*
X11154Y298121D01*
X11023Y298074D01*
X10891Y298031D01*
X10873Y298020D01*
X10854Y298013D01*
X10739Y297935D01*
X10622Y297861D01*
X10608Y297846D01*
X10591Y297835D01*
X10499Y297731D01*
X10404Y297629D01*
X10394Y297611D01*
X10381Y297596D01*
X10318Y297472D01*
X10250Y297351D01*
X10245Y297331D01*
X10236Y297313D01*
X10206Y297177D01*
X10171Y297043D01*
X10169Y297015D01*
X10166Y297003D01*
X10167Y296982D01*
X10161Y296882D01*
X10161Y193338D01*
X10178Y193200D01*
X10191Y193062D01*
X10198Y193043D01*
X10201Y193022D01*
X10252Y192893D01*
X10299Y192762D01*
X10310Y192746D01*
X10318Y192727D01*
X10399Y192614D01*
X10477Y192499D01*
X10493Y192486D01*
X10504Y192469D01*
X10612Y192380D01*
X10716Y192289D01*
X10734Y192280D01*
X10749Y192267D01*
X10875Y192207D01*
X10999Y192144D01*
X11019Y192140D01*
X11037Y192131D01*
X11174Y192105D01*
X11309Y192074D01*
X11330Y192075D01*
X11349Y192071D01*
X11488Y192080D01*
X11627Y192084D01*
X11647Y192090D01*
X11667Y192091D01*
X11799Y192134D01*
X11933Y192173D01*
X11950Y192183D01*
X11969Y192189D01*
X12087Y192264D01*
X12207Y192334D01*
X12228Y192353D01*
X12238Y192359D01*
X12252Y192374D01*
X12328Y192441D01*
X12516Y192629D01*
X14272Y193905D01*
X16206Y194890D01*
X17917Y195446D01*
X17944Y195459D01*
X17973Y195466D01*
X18088Y195527D01*
X18205Y195582D01*
X18228Y195601D01*
X18254Y195615D01*
X18350Y195702D01*
X18450Y195784D01*
X18468Y195809D01*
X18490Y195829D01*
X18561Y195937D01*
X18637Y196042D01*
X18648Y196069D01*
X18664Y196094D01*
X18706Y196217D01*
X18754Y196337D01*
X18758Y196367D01*
X18768Y196395D01*
X18778Y196524D01*
X18794Y196653D01*
X18791Y196682D01*
X18793Y196712D01*
X18771Y196840D01*
X18755Y196968D01*
X18744Y196996D01*
X18739Y197026D01*
X18685Y197144D01*
X18638Y197264D01*
X18620Y197288D01*
X18608Y197315D01*
X18527Y197417D01*
X18451Y197522D01*
X18428Y197541D01*
X18409Y197564D01*
X18306Y197642D01*
X18206Y197724D01*
X18179Y197737D01*
X18155Y197755D01*
X18011Y197826D01*
X16932Y198273D01*
X14663Y200542D01*
X13435Y203506D01*
X13435Y206714D01*
X14663Y209678D01*
X16932Y211947D01*
X19896Y213175D01*
X23104Y213175D01*
X26068Y211947D01*
X27961Y210054D01*
X28039Y209994D01*
X28111Y209926D01*
X28164Y209897D01*
X28212Y209860D01*
X28303Y209820D01*
X28390Y209772D01*
X28448Y209757D01*
X28504Y209733D01*
X28602Y209718D01*
X28698Y209693D01*
X28798Y209687D01*
X28818Y209683D01*
X28830Y209685D01*
X28858Y209683D01*
X40624Y209683D01*
X80773Y169534D01*
X80773Y139580D01*
X80785Y139482D01*
X80788Y139383D01*
X80805Y139324D01*
X80813Y139264D01*
X80849Y139172D01*
X80877Y139077D01*
X80907Y139025D01*
X80930Y138969D01*
X80988Y138889D01*
X81038Y138803D01*
X81104Y138728D01*
X81116Y138711D01*
X81126Y138703D01*
X81144Y138682D01*
X103122Y116704D01*
X106173Y113654D01*
X106173Y32900D01*
X106185Y32802D01*
X106188Y32703D01*
X106205Y32644D01*
X106213Y32584D01*
X106249Y32492D01*
X106277Y32397D01*
X106307Y32345D01*
X106330Y32289D01*
X106388Y32209D01*
X106438Y32123D01*
X106504Y32048D01*
X106516Y32031D01*
X106526Y32023D01*
X106544Y32002D01*
X110275Y28271D01*
X110283Y28266D01*
X110289Y28258D01*
X110370Y28197D01*
X110395Y28173D01*
X110418Y28161D01*
X110527Y28076D01*
X110535Y28073D01*
X110543Y28067D01*
X110687Y27996D01*
X112226Y27359D01*
X113719Y25866D01*
X114527Y23916D01*
X114527Y21804D01*
X113719Y19854D01*
X112226Y18361D01*
X110276Y17553D01*
X108164Y17553D01*
X106214Y18361D01*
X104721Y19854D01*
X104084Y21393D01*
X104079Y21401D01*
X104077Y21410D01*
X104000Y21539D01*
X103926Y21669D01*
X103920Y21676D01*
X103915Y21684D01*
X103809Y21805D01*
X97027Y28586D01*
X97027Y109340D01*
X97015Y109438D01*
X97012Y109537D01*
X96995Y109596D01*
X96987Y109656D01*
X96951Y109748D01*
X96923Y109843D01*
X96893Y109895D01*
X96870Y109951D01*
X96812Y110031D01*
X96762Y110117D01*
X96696Y110192D01*
X96684Y110209D01*
X96674Y110217D01*
X96656Y110238D01*
X76682Y130212D01*
X76603Y130272D01*
X76531Y130340D01*
X76478Y130369D01*
X76430Y130406D01*
X76339Y130446D01*
X76253Y130494D01*
X76194Y130509D01*
X76139Y130533D01*
X76041Y130548D01*
X75945Y130573D01*
X75845Y130579D01*
X75824Y130583D01*
X75812Y130581D01*
X75784Y130583D01*
X75144Y130583D01*
X73194Y131391D01*
X71701Y132884D01*
X70893Y134834D01*
X70893Y136946D01*
X71531Y138484D01*
X71533Y138493D01*
X71538Y138501D01*
X71575Y138647D01*
X71615Y138791D01*
X71615Y138800D01*
X71617Y138809D01*
X71627Y138970D01*
X71627Y165220D01*
X71615Y165318D01*
X71612Y165417D01*
X71595Y165476D01*
X71587Y165536D01*
X71551Y165628D01*
X71523Y165723D01*
X71493Y165775D01*
X71470Y165831D01*
X71412Y165911D01*
X71362Y165997D01*
X71296Y166072D01*
X71284Y166089D01*
X71274Y166097D01*
X71256Y166118D01*
X37208Y200166D01*
X37129Y200226D01*
X37057Y200294D01*
X37004Y200323D01*
X36956Y200360D01*
X36865Y200400D01*
X36779Y200448D01*
X36720Y200463D01*
X36665Y200487D01*
X36567Y200502D01*
X36471Y200527D01*
X36371Y200533D01*
X36350Y200537D01*
X36338Y200535D01*
X36310Y200537D01*
X28858Y200537D01*
X28760Y200525D01*
X28661Y200522D01*
X28603Y200505D01*
X28543Y200497D01*
X28451Y200461D01*
X28356Y200433D01*
X28303Y200403D01*
X28247Y200380D01*
X28167Y200322D01*
X28082Y200272D01*
X28006Y200206D01*
X27990Y200194D01*
X27982Y200184D01*
X27961Y200166D01*
X26068Y198273D01*
X24989Y197826D01*
X24963Y197811D01*
X24935Y197802D01*
X24825Y197733D01*
X24713Y197669D01*
X24692Y197648D01*
X24666Y197632D01*
X24577Y197537D01*
X24485Y197447D01*
X24469Y197422D01*
X24449Y197400D01*
X24386Y197286D01*
X24318Y197176D01*
X24310Y197148D01*
X24295Y197121D01*
X24263Y196996D01*
X24225Y196872D01*
X24223Y196842D01*
X24216Y196813D01*
X24216Y196684D01*
X24210Y196555D01*
X24216Y196525D01*
X24216Y196495D01*
X24248Y196370D01*
X24274Y196243D01*
X24287Y196216D01*
X24294Y196187D01*
X24357Y196074D01*
X24414Y195957D01*
X24433Y195935D01*
X24447Y195908D01*
X24536Y195814D01*
X24620Y195715D01*
X24644Y195698D01*
X24665Y195676D01*
X24774Y195607D01*
X24880Y195532D01*
X24908Y195522D01*
X24933Y195506D01*
X25083Y195446D01*
X26794Y194890D01*
X28728Y193905D01*
X30484Y192629D01*
X32019Y191094D01*
X33295Y189338D01*
X34280Y187404D01*
X34951Y185339D01*
X35060Y184649D01*
X22770Y184649D01*
X22652Y184634D01*
X22533Y184627D01*
X22495Y184614D01*
X22455Y184609D01*
X22344Y184566D01*
X22231Y184529D01*
X22197Y184507D01*
X22159Y184492D01*
X22063Y184422D01*
X21962Y184359D01*
X21934Y184329D01*
X21902Y184305D01*
X21826Y184214D01*
X21744Y184127D01*
X21725Y184092D01*
X21699Y184061D01*
X21648Y183953D01*
X21591Y183849D01*
X21580Y183809D01*
X21563Y183773D01*
X21541Y183656D01*
X21511Y183541D01*
X21507Y183480D01*
X21503Y183460D01*
X21505Y183440D01*
X21501Y183380D01*
X21501Y182109D01*
X20230Y182109D01*
X20112Y182094D01*
X19993Y182087D01*
X19955Y182074D01*
X19914Y182069D01*
X19804Y182025D01*
X19691Y181989D01*
X19656Y181967D01*
X19619Y181952D01*
X19523Y181882D01*
X19422Y181819D01*
X19394Y181789D01*
X19361Y181765D01*
X19286Y181674D01*
X19204Y181587D01*
X19184Y181552D01*
X19159Y181520D01*
X19108Y181413D01*
X19050Y181308D01*
X19040Y181269D01*
X19023Y181233D01*
X19001Y181116D01*
X18971Y181001D01*
X18967Y180940D01*
X18963Y180920D01*
X18965Y180900D01*
X18961Y180840D01*
X18961Y168550D01*
X18271Y168659D01*
X16206Y169330D01*
X14272Y170315D01*
X12516Y171591D01*
X12328Y171779D01*
X12218Y171865D01*
X12111Y171953D01*
X12092Y171962D01*
X12076Y171974D01*
X11949Y172030D01*
X11823Y172089D01*
X11803Y172093D01*
X11784Y172101D01*
X11647Y172123D01*
X11510Y172149D01*
X11490Y172147D01*
X11470Y172151D01*
X11332Y172138D01*
X11193Y172129D01*
X11174Y172123D01*
X11154Y172121D01*
X11023Y172074D01*
X10891Y172031D01*
X10873Y172020D01*
X10854Y172013D01*
X10739Y171935D01*
X10622Y171861D01*
X10608Y171846D01*
X10591Y171835D01*
X10499Y171731D01*
X10404Y171629D01*
X10394Y171611D01*
X10381Y171596D01*
X10318Y171473D01*
X10250Y171351D01*
X10245Y171331D01*
X10236Y171313D01*
X10206Y171177D01*
X10171Y171043D01*
X10169Y171015D01*
X10166Y171003D01*
X10167Y170982D01*
X10161Y170882D01*
X10161Y157232D01*
X10187Y157024D01*
X10201Y156916D01*
X10209Y156896D01*
X10251Y156790D01*
X10318Y156621D01*
X10318Y156620D01*
X10392Y156517D01*
X10504Y156363D01*
X10613Y156274D01*
X10749Y156160D01*
X10847Y156114D01*
X11037Y156025D01*
X11349Y155965D01*
X11468Y155972D01*
X11667Y155985D01*
X11780Y156014D01*
X11961Y156042D01*
X11961Y146030D01*
X11976Y145912D01*
X11983Y145793D01*
X11996Y145755D01*
X12001Y145715D01*
X12044Y145604D01*
X12081Y145491D01*
X12103Y145457D01*
X12118Y145419D01*
X12188Y145323D01*
X12251Y145222D01*
X12281Y145194D01*
X12304Y145162D01*
X12396Y145086D01*
X12483Y145004D01*
X12518Y144985D01*
X12549Y144959D01*
X12657Y144908D01*
X12761Y144851D01*
X12801Y144840D01*
X12837Y144823D01*
X12954Y144801D01*
X13069Y144771D01*
X13130Y144767D01*
X13150Y144763D01*
X13170Y144765D01*
X13230Y144761D01*
X14501Y144761D01*
X14501Y144759D01*
X13230Y144759D01*
X13112Y144744D01*
X12993Y144737D01*
X12955Y144724D01*
X12914Y144719D01*
X12804Y144675D01*
X12691Y144639D01*
X12656Y144617D01*
X12619Y144602D01*
X12523Y144532D01*
X12422Y144469D01*
X12394Y144439D01*
X12361Y144415D01*
X12286Y144324D01*
X12204Y144237D01*
X12184Y144202D01*
X12159Y144170D01*
X12108Y144063D01*
X12050Y143958D01*
X12040Y143919D01*
X12023Y143883D01*
X12001Y143766D01*
X11971Y143651D01*
X11967Y143590D01*
X11963Y143570D01*
X11965Y143550D01*
X11961Y143490D01*
X11961Y133478D01*
X11699Y133519D01*
X11698Y133519D01*
X11557Y133546D01*
X11510Y133555D01*
X11292Y133541D01*
X11193Y133535D01*
X11050Y133489D01*
X10891Y133437D01*
X10890Y133437D01*
X10759Y133354D01*
X10622Y133267D01*
X10530Y133170D01*
X10404Y133035D01*
X10377Y132987D01*
X10262Y132777D01*
X10250Y132757D01*
X10195Y132543D01*
X10171Y132449D01*
X10161Y132288D01*
X10161Y91232D01*
X10178Y91097D01*
X10201Y90916D01*
X10209Y90896D01*
X10251Y90790D01*
X10318Y90621D01*
X10318Y90620D01*
X10401Y90505D01*
X10504Y90363D01*
X10611Y90275D01*
X10749Y90160D01*
X10849Y90113D01*
X11037Y90025D01*
X11349Y89965D01*
X11468Y89972D01*
X11667Y89985D01*
X11780Y90014D01*
X11961Y90042D01*
X11961Y80030D01*
X11976Y79912D01*
X11983Y79793D01*
X11996Y79755D01*
X12001Y79715D01*
X12044Y79604D01*
X12081Y79491D01*
X12103Y79457D01*
X12118Y79419D01*
X12188Y79323D01*
X12251Y79222D01*
X12281Y79194D01*
X12304Y79162D01*
X12396Y79086D01*
X12483Y79004D01*
X12518Y78985D01*
X12549Y78959D01*
X12657Y78908D01*
X12761Y78851D01*
X12801Y78840D01*
X12837Y78823D01*
X12954Y78801D01*
X13069Y78771D01*
X13130Y78767D01*
X13150Y78763D01*
X13170Y78765D01*
X13230Y78761D01*
X14501Y78761D01*
X14501Y78759D01*
X13230Y78759D01*
X13112Y78744D01*
X12993Y78737D01*
X12955Y78724D01*
X12914Y78719D01*
X12804Y78675D01*
X12691Y78639D01*
X12656Y78617D01*
X12619Y78602D01*
X12523Y78532D01*
X12422Y78469D01*
X12394Y78439D01*
X12361Y78415D01*
X12286Y78324D01*
X12204Y78237D01*
X12184Y78202D01*
X12159Y78170D01*
X12108Y78063D01*
X12050Y77958D01*
X12040Y77919D01*
X12023Y77883D01*
X12001Y77766D01*
X11971Y77651D01*
X11967Y77590D01*
X11963Y77570D01*
X11965Y77550D01*
X11961Y77490D01*
X11961Y67478D01*
X11699Y67519D01*
X11698Y67519D01*
X11557Y67546D01*
X11510Y67555D01*
X11292Y67541D01*
X11193Y67535D01*
X11050Y67489D01*
X10891Y67437D01*
X10890Y67437D01*
X10759Y67354D01*
X10622Y67267D01*
X10530Y67170D01*
X10404Y67035D01*
X10350Y66937D01*
X10262Y66777D01*
X10250Y66757D01*
X10195Y66543D01*
X10171Y66449D01*
X10161Y66288D01*
X10161Y49766D01*
X10179Y49622D01*
X10194Y49477D01*
X10199Y49464D01*
X10201Y49451D01*
X10254Y49315D01*
X10305Y49179D01*
X10313Y49167D01*
X10318Y49155D01*
X10403Y49037D01*
X10486Y48917D01*
X10497Y48908D01*
X10504Y48898D01*
X10617Y48805D01*
X10727Y48709D01*
X10739Y48703D01*
X10749Y48695D01*
X10881Y48633D01*
X11012Y48568D01*
X11025Y48565D01*
X11037Y48559D01*
X11179Y48532D01*
X11323Y48501D01*
X11336Y48502D01*
X11349Y48499D01*
X11494Y48508D01*
X11640Y48514D01*
X11654Y48518D01*
X11667Y48519D01*
X11805Y48564D01*
X11945Y48606D01*
X11957Y48613D01*
X11969Y48617D01*
X12092Y48695D01*
X12217Y48770D01*
X12227Y48780D01*
X12238Y48787D01*
X12338Y48893D01*
X12440Y48997D01*
X12450Y49013D01*
X12456Y49019D01*
X12464Y49034D01*
X12529Y49131D01*
X15966Y55084D01*
X21116Y60234D01*
X27423Y63876D01*
X34458Y65761D01*
X41742Y65761D01*
X48777Y63876D01*
X55084Y60234D01*
X60234Y55084D01*
X63876Y48777D01*
X65761Y41742D01*
X65761Y34458D01*
X63876Y27423D01*
X60234Y21116D01*
X55084Y15966D01*
X49131Y12529D01*
X49015Y12441D01*
X48898Y12356D01*
X48889Y12345D01*
X48878Y12337D01*
X48788Y12223D01*
X48695Y12111D01*
X48689Y12098D01*
X48681Y12088D01*
X48621Y11954D01*
X48559Y11823D01*
X48557Y11810D01*
X48551Y11797D01*
X48527Y11653D01*
X48499Y11510D01*
X48500Y11497D01*
X48498Y11484D01*
X48510Y11338D01*
X48519Y11193D01*
X48523Y11180D01*
X48524Y11167D01*
X48572Y11029D01*
X48617Y10891D01*
X48624Y10879D01*
X48629Y10866D01*
X48709Y10745D01*
X48787Y10622D01*
X48797Y10613D01*
X48805Y10601D01*
X48912Y10504D01*
X49019Y10404D01*
X49031Y10397D01*
X49041Y10388D01*
X49170Y10321D01*
X49297Y10250D01*
X49311Y10247D01*
X49323Y10241D01*
X49465Y10207D01*
X49605Y10171D01*
X49624Y10170D01*
X49632Y10168D01*
X49649Y10168D01*
X49766Y10161D01*
X823944Y10161D01*
X824062Y10176D01*
G37*
G36*
X242688Y402606D02*
X242688Y402606D01*
X242807Y402613D01*
X242845Y402626D01*
X242886Y402631D01*
X242996Y402674D01*
X243109Y402711D01*
X243144Y402733D01*
X243181Y402748D01*
X243277Y402818D01*
X243378Y402881D01*
X243406Y402911D01*
X243439Y402934D01*
X243515Y403026D01*
X243596Y403113D01*
X243616Y403148D01*
X243641Y403179D01*
X243692Y403287D01*
X243750Y403391D01*
X243760Y403431D01*
X243777Y403467D01*
X243799Y403584D01*
X243829Y403699D01*
X243833Y403760D01*
X243837Y403780D01*
X243835Y403800D01*
X243839Y403860D01*
X243839Y488950D01*
X243824Y489068D01*
X243817Y489187D01*
X243804Y489225D01*
X243799Y489266D01*
X243756Y489376D01*
X243719Y489489D01*
X243697Y489524D01*
X243682Y489561D01*
X243613Y489657D01*
X243549Y489758D01*
X243519Y489786D01*
X243496Y489819D01*
X243404Y489895D01*
X243317Y489976D01*
X243282Y489996D01*
X243251Y490021D01*
X243143Y490072D01*
X243039Y490130D01*
X242999Y490140D01*
X242963Y490157D01*
X242846Y490179D01*
X242731Y490209D01*
X242671Y490213D01*
X242651Y490217D01*
X242630Y490215D01*
X242570Y490219D01*
X67310Y490219D01*
X67192Y490204D01*
X67073Y490197D01*
X67035Y490184D01*
X66994Y490179D01*
X66884Y490136D01*
X66771Y490099D01*
X66736Y490077D01*
X66699Y490062D01*
X66603Y489993D01*
X66502Y489929D01*
X66474Y489899D01*
X66441Y489876D01*
X66366Y489784D01*
X66284Y489697D01*
X66264Y489662D01*
X66239Y489631D01*
X66188Y489523D01*
X66130Y489419D01*
X66120Y489379D01*
X66103Y489343D01*
X66081Y489226D01*
X66051Y489111D01*
X66047Y489051D01*
X66043Y489031D01*
X66045Y489010D01*
X66041Y488950D01*
X66041Y425450D01*
X66056Y425332D01*
X66063Y425213D01*
X66076Y425175D01*
X66081Y425134D01*
X66124Y425024D01*
X66161Y424911D01*
X66183Y424876D01*
X66198Y424839D01*
X66268Y424743D01*
X66331Y424642D01*
X66361Y424614D01*
X66384Y424581D01*
X66476Y424506D01*
X66563Y424424D01*
X66598Y424404D01*
X66629Y424379D01*
X66737Y424328D01*
X66841Y424270D01*
X66881Y424260D01*
X66917Y424243D01*
X67034Y424221D01*
X67149Y424191D01*
X67210Y424187D01*
X67230Y424183D01*
X67250Y424185D01*
X67310Y424181D01*
X102871Y424181D01*
X102871Y404482D01*
X102883Y404384D01*
X102886Y404285D01*
X102903Y404227D01*
X102911Y404167D01*
X102947Y404075D01*
X102975Y403980D01*
X103005Y403927D01*
X103028Y403871D01*
X103086Y403791D01*
X103136Y403706D01*
X103202Y403630D01*
X103214Y403614D01*
X103224Y403606D01*
X103243Y403585D01*
X103865Y402963D01*
X103943Y402902D01*
X104015Y402834D01*
X104068Y402805D01*
X104116Y402768D01*
X104207Y402728D01*
X104294Y402680D01*
X104352Y402665D01*
X104408Y402641D01*
X104506Y402626D01*
X104602Y402601D01*
X104702Y402595D01*
X104722Y402591D01*
X104734Y402593D01*
X104762Y402591D01*
X242570Y402591D01*
X242688Y402606D01*
G37*
G36*
X628768Y402606D02*
X628768Y402606D01*
X628887Y402613D01*
X628925Y402626D01*
X628966Y402631D01*
X629076Y402674D01*
X629189Y402711D01*
X629224Y402733D01*
X629261Y402748D01*
X629357Y402818D01*
X629458Y402881D01*
X629486Y402911D01*
X629519Y402934D01*
X629595Y403026D01*
X629676Y403113D01*
X629696Y403148D01*
X629721Y403179D01*
X629772Y403287D01*
X629830Y403391D01*
X629840Y403431D01*
X629857Y403467D01*
X629879Y403584D01*
X629909Y403699D01*
X629913Y403760D01*
X629917Y403780D01*
X629915Y403800D01*
X629919Y403860D01*
X629919Y422910D01*
X629904Y423028D01*
X629897Y423147D01*
X629884Y423185D01*
X629879Y423226D01*
X629836Y423336D01*
X629799Y423449D01*
X629777Y423484D01*
X629762Y423521D01*
X629693Y423617D01*
X629629Y423718D01*
X629599Y423746D01*
X629576Y423779D01*
X629484Y423855D01*
X629397Y423936D01*
X629362Y423956D01*
X629331Y423981D01*
X629223Y424032D01*
X629119Y424090D01*
X629079Y424100D01*
X629043Y424117D01*
X628926Y424139D01*
X628811Y424169D01*
X628751Y424173D01*
X628731Y424177D01*
X628710Y424175D01*
X628650Y424179D01*
X275589Y424179D01*
X275589Y444500D01*
X275574Y444618D01*
X275567Y444737D01*
X275554Y444775D01*
X275549Y444816D01*
X275506Y444926D01*
X275469Y445039D01*
X275447Y445074D01*
X275432Y445111D01*
X275363Y445207D01*
X275299Y445308D01*
X275269Y445336D01*
X275246Y445369D01*
X275154Y445445D01*
X275067Y445526D01*
X275032Y445546D01*
X275001Y445571D01*
X274893Y445622D01*
X274789Y445680D01*
X274749Y445690D01*
X274713Y445707D01*
X274596Y445729D01*
X274481Y445759D01*
X274421Y445763D01*
X274401Y445767D01*
X274380Y445765D01*
X274320Y445769D01*
X248920Y445769D01*
X248802Y445754D01*
X248683Y445747D01*
X248645Y445734D01*
X248604Y445729D01*
X248494Y445686D01*
X248381Y445649D01*
X248346Y445627D01*
X248309Y445612D01*
X248213Y445543D01*
X248112Y445479D01*
X248084Y445449D01*
X248051Y445426D01*
X247976Y445334D01*
X247894Y445247D01*
X247874Y445212D01*
X247849Y445181D01*
X247798Y445073D01*
X247740Y444969D01*
X247730Y444929D01*
X247713Y444893D01*
X247691Y444776D01*
X247661Y444661D01*
X247657Y444601D01*
X247653Y444581D01*
X247654Y444562D01*
X247653Y444557D01*
X247654Y444548D01*
X247651Y444500D01*
X247651Y403860D01*
X247666Y403742D01*
X247673Y403623D01*
X247686Y403585D01*
X247691Y403544D01*
X247734Y403434D01*
X247771Y403321D01*
X247793Y403286D01*
X247808Y403249D01*
X247878Y403153D01*
X247941Y403052D01*
X247971Y403024D01*
X247994Y402991D01*
X248086Y402916D01*
X248173Y402834D01*
X248208Y402814D01*
X248239Y402789D01*
X248347Y402738D01*
X248451Y402680D01*
X248491Y402670D01*
X248527Y402653D01*
X248644Y402631D01*
X248759Y402601D01*
X248820Y402597D01*
X248840Y402593D01*
X248860Y402595D01*
X248920Y402591D01*
X628650Y402591D01*
X628768Y402606D01*
G37*
%LPC*%
G36*
X548854Y229643D02*
X548854Y229643D01*
X546904Y230451D01*
X545411Y231944D01*
X544603Y233894D01*
X544603Y236006D01*
X545411Y237956D01*
X546904Y239449D01*
X548443Y240086D01*
X548451Y240091D01*
X548460Y240093D01*
X548589Y240170D01*
X548719Y240244D01*
X548726Y240250D01*
X548734Y240255D01*
X548855Y240361D01*
X553856Y245362D01*
X553916Y245441D01*
X553984Y245513D01*
X554010Y245560D01*
X554011Y245561D01*
X554012Y245564D01*
X554013Y245566D01*
X554050Y245614D01*
X554090Y245705D01*
X554138Y245791D01*
X554153Y245850D01*
X554177Y245905D01*
X554192Y246003D01*
X554217Y246099D01*
X554223Y246199D01*
X554227Y246220D01*
X554225Y246232D01*
X554227Y246260D01*
X554227Y365114D01*
X557277Y368164D01*
X557278Y368164D01*
X571636Y382522D01*
X574686Y385573D01*
X884040Y385573D01*
X884138Y385585D01*
X884237Y385588D01*
X884296Y385605D01*
X884356Y385613D01*
X884448Y385649D01*
X884543Y385677D01*
X884595Y385707D01*
X884651Y385730D01*
X884731Y385788D01*
X884817Y385838D01*
X884892Y385904D01*
X884909Y385916D01*
X884917Y385926D01*
X884938Y385944D01*
X893749Y394755D01*
X893754Y394763D01*
X893762Y394769D01*
X893852Y394888D01*
X893944Y395007D01*
X893947Y395015D01*
X893953Y395023D01*
X894024Y395167D01*
X894661Y396706D01*
X896154Y398199D01*
X898104Y399007D01*
X900216Y399007D01*
X902166Y398199D01*
X903659Y396706D01*
X904467Y394756D01*
X904467Y392644D01*
X903659Y390694D01*
X902166Y389201D01*
X900627Y388564D01*
X900619Y388559D01*
X900610Y388557D01*
X900482Y388481D01*
X900351Y388406D01*
X900344Y388400D01*
X900336Y388395D01*
X900215Y388289D01*
X888354Y376427D01*
X579000Y376427D01*
X578902Y376415D01*
X578803Y376412D01*
X578744Y376395D01*
X578684Y376387D01*
X578592Y376351D01*
X578497Y376323D01*
X578445Y376293D01*
X578389Y376270D01*
X578309Y376212D01*
X578223Y376162D01*
X578148Y376096D01*
X578131Y376084D01*
X578123Y376074D01*
X578102Y376056D01*
X563744Y361698D01*
X563684Y361619D01*
X563616Y361547D01*
X563587Y361494D01*
X563550Y361446D01*
X563510Y361355D01*
X563462Y361269D01*
X563447Y361210D01*
X563423Y361155D01*
X563408Y361057D01*
X563383Y360961D01*
X563377Y360861D01*
X563373Y360840D01*
X563375Y360828D01*
X563373Y360800D01*
X563373Y241946D01*
X555321Y233895D01*
X555316Y233887D01*
X555308Y233881D01*
X555218Y233762D01*
X555126Y233643D01*
X555123Y233635D01*
X555117Y233627D01*
X555046Y233483D01*
X554409Y231944D01*
X552916Y230451D01*
X550966Y229643D01*
X548854Y229643D01*
G37*
%LPD*%
%LPC*%
G36*
X224241Y286765D02*
X224241Y286765D01*
X220880Y288157D01*
X218307Y290730D01*
X216915Y294091D01*
X216915Y297729D01*
X218307Y301090D01*
X220944Y303726D01*
X220980Y303747D01*
X221001Y303768D01*
X221026Y303783D01*
X221115Y303878D01*
X221208Y303968D01*
X221224Y303993D01*
X221244Y304015D01*
X221307Y304129D01*
X221375Y304239D01*
X221383Y304268D01*
X221398Y304294D01*
X221430Y304419D01*
X221468Y304543D01*
X221470Y304573D01*
X221477Y304601D01*
X221487Y304762D01*
X221487Y329554D01*
X288936Y397003D01*
X489680Y397003D01*
X489689Y397004D01*
X489698Y397003D01*
X489847Y397024D01*
X489995Y397043D01*
X490004Y397046D01*
X490013Y397047D01*
X490166Y397099D01*
X491704Y397737D01*
X493816Y397737D01*
X495766Y396929D01*
X497259Y395436D01*
X498067Y393486D01*
X498067Y391374D01*
X497259Y389424D01*
X495766Y387931D01*
X493816Y387123D01*
X491704Y387123D01*
X490166Y387761D01*
X490157Y387763D01*
X490149Y387768D01*
X490003Y387805D01*
X489859Y387845D01*
X489850Y387845D01*
X489841Y387847D01*
X489680Y387857D01*
X293250Y387857D01*
X293152Y387845D01*
X293053Y387842D01*
X292994Y387825D01*
X292934Y387817D01*
X292842Y387781D01*
X292747Y387753D01*
X292695Y387723D01*
X292639Y387700D01*
X292559Y387642D01*
X292473Y387592D01*
X292398Y387526D01*
X292381Y387514D01*
X292373Y387504D01*
X292352Y387486D01*
X231004Y326138D01*
X230944Y326059D01*
X230876Y325987D01*
X230847Y325934D01*
X230810Y325886D01*
X230770Y325795D01*
X230722Y325709D01*
X230707Y325650D01*
X230683Y325595D01*
X230668Y325497D01*
X230643Y325401D01*
X230637Y325301D01*
X230633Y325280D01*
X230635Y325268D01*
X230633Y325240D01*
X230633Y304762D01*
X230636Y304733D01*
X230634Y304703D01*
X230656Y304575D01*
X230673Y304447D01*
X230683Y304419D01*
X230689Y304390D01*
X230742Y304271D01*
X230790Y304151D01*
X230807Y304127D01*
X230819Y304100D01*
X230900Y303999D01*
X230976Y303894D01*
X230999Y303875D01*
X231018Y303852D01*
X231121Y303774D01*
X231165Y303737D01*
X233813Y301090D01*
X235205Y297729D01*
X235205Y294091D01*
X233813Y290730D01*
X231240Y288157D01*
X227879Y286765D01*
X224241Y286765D01*
G37*
%LPD*%
%LPC*%
G36*
X275804Y83593D02*
X275804Y83593D01*
X273854Y84401D01*
X272361Y85894D01*
X271553Y87844D01*
X271553Y89956D01*
X272191Y91494D01*
X272193Y91503D01*
X272198Y91511D01*
X272235Y91657D01*
X272275Y91801D01*
X272275Y91810D01*
X272277Y91819D01*
X272287Y91980D01*
X272287Y168148D01*
X272272Y168266D01*
X272265Y168385D01*
X272252Y168423D01*
X272247Y168464D01*
X272204Y168574D01*
X272167Y168687D01*
X272145Y168722D01*
X272130Y168759D01*
X272061Y168855D01*
X271997Y168956D01*
X271967Y168984D01*
X271944Y169017D01*
X271852Y169093D01*
X271765Y169174D01*
X271730Y169194D01*
X271699Y169219D01*
X271591Y169270D01*
X271487Y169328D01*
X271447Y169338D01*
X271411Y169355D01*
X271294Y169377D01*
X271179Y169407D01*
X271119Y169411D01*
X271099Y169415D01*
X271078Y169413D01*
X271018Y169417D01*
X241840Y169417D01*
X241831Y169416D01*
X241822Y169417D01*
X241673Y169396D01*
X241525Y169377D01*
X241516Y169374D01*
X241507Y169373D01*
X241354Y169321D01*
X239816Y168683D01*
X237704Y168683D01*
X235754Y169491D01*
X234261Y170984D01*
X233453Y172934D01*
X233453Y175046D01*
X234261Y176996D01*
X235754Y178489D01*
X237704Y179297D01*
X239816Y179297D01*
X241354Y178659D01*
X241363Y178657D01*
X241371Y178652D01*
X241517Y178615D01*
X241661Y178575D01*
X241670Y178575D01*
X241679Y178573D01*
X241840Y178563D01*
X271018Y178563D01*
X271136Y178578D01*
X271255Y178585D01*
X271293Y178598D01*
X271334Y178603D01*
X271444Y178646D01*
X271557Y178683D01*
X271592Y178705D01*
X271629Y178720D01*
X271725Y178789D01*
X271826Y178853D01*
X271854Y178883D01*
X271887Y178906D01*
X271963Y178998D01*
X272044Y179085D01*
X272064Y179120D01*
X272089Y179151D01*
X272140Y179259D01*
X272198Y179363D01*
X272208Y179403D01*
X272225Y179439D01*
X272247Y179556D01*
X272277Y179671D01*
X272281Y179731D01*
X272285Y179751D01*
X272283Y179772D01*
X272287Y179832D01*
X272287Y192394D01*
X384186Y304293D01*
X414750Y304293D01*
X414759Y304294D01*
X414768Y304293D01*
X414917Y304314D01*
X415065Y304333D01*
X415074Y304336D01*
X415083Y304337D01*
X415236Y304389D01*
X416774Y305027D01*
X418886Y305027D01*
X420836Y304219D01*
X422329Y302726D01*
X423137Y300776D01*
X423137Y298664D01*
X422329Y296714D01*
X420836Y295221D01*
X418886Y294413D01*
X416774Y294413D01*
X415236Y295051D01*
X415227Y295053D01*
X415219Y295058D01*
X415073Y295095D01*
X414929Y295135D01*
X414920Y295135D01*
X414911Y295137D01*
X414750Y295147D01*
X388500Y295147D01*
X388402Y295135D01*
X388303Y295132D01*
X388244Y295115D01*
X388184Y295107D01*
X388092Y295071D01*
X387997Y295043D01*
X387945Y295013D01*
X387889Y294990D01*
X387809Y294932D01*
X387723Y294882D01*
X387648Y294816D01*
X387631Y294804D01*
X387623Y294794D01*
X387602Y294776D01*
X281804Y188978D01*
X281744Y188899D01*
X281676Y188827D01*
X281647Y188774D01*
X281610Y188726D01*
X281570Y188635D01*
X281522Y188549D01*
X281507Y188490D01*
X281483Y188435D01*
X281468Y188337D01*
X281443Y188241D01*
X281437Y188141D01*
X281433Y188120D01*
X281435Y188108D01*
X281433Y188080D01*
X281433Y91980D01*
X281434Y91971D01*
X281433Y91962D01*
X281454Y91813D01*
X281473Y91665D01*
X281476Y91656D01*
X281477Y91647D01*
X281529Y91494D01*
X282167Y89956D01*
X282167Y87844D01*
X281359Y85894D01*
X279866Y84401D01*
X277916Y83593D01*
X275804Y83593D01*
G37*
%LPD*%
%LPC*%
G36*
X249641Y286765D02*
X249641Y286765D01*
X246280Y288157D01*
X243707Y290730D01*
X242315Y294091D01*
X242315Y297729D01*
X243707Y301090D01*
X246280Y303663D01*
X249641Y305055D01*
X253369Y305055D01*
X253409Y305044D01*
X253439Y305043D01*
X253468Y305037D01*
X253598Y305041D01*
X253727Y305039D01*
X253756Y305046D01*
X253786Y305046D01*
X253910Y305083D01*
X254036Y305113D01*
X254063Y305127D01*
X254091Y305135D01*
X254203Y305201D01*
X254318Y305261D01*
X254340Y305281D01*
X254365Y305296D01*
X254486Y305403D01*
X330336Y381252D01*
X333386Y384303D01*
X466714Y384303D01*
X495085Y355931D01*
X495093Y355926D01*
X495099Y355918D01*
X495218Y355828D01*
X495337Y355736D01*
X495345Y355733D01*
X495353Y355727D01*
X495497Y355656D01*
X497036Y355019D01*
X498529Y353526D01*
X499337Y351576D01*
X499337Y349464D01*
X498529Y347514D01*
X497036Y346021D01*
X495086Y345213D01*
X492974Y345213D01*
X491024Y346021D01*
X489531Y347514D01*
X488894Y349053D01*
X488889Y349061D01*
X488887Y349070D01*
X488810Y349199D01*
X488736Y349329D01*
X488730Y349336D01*
X488725Y349344D01*
X488619Y349465D01*
X463298Y374786D01*
X463219Y374846D01*
X463147Y374914D01*
X463094Y374943D01*
X463046Y374980D01*
X462955Y375020D01*
X462869Y375068D01*
X462810Y375083D01*
X462755Y375107D01*
X462657Y375122D01*
X462561Y375147D01*
X462461Y375153D01*
X462440Y375157D01*
X462428Y375155D01*
X462400Y375157D01*
X337700Y375157D01*
X337602Y375145D01*
X337503Y375142D01*
X337444Y375125D01*
X337384Y375117D01*
X337292Y375081D01*
X337197Y375053D01*
X337145Y375023D01*
X337089Y375000D01*
X337009Y374942D01*
X336923Y374892D01*
X336848Y374826D01*
X336831Y374814D01*
X336823Y374804D01*
X336802Y374786D01*
X260953Y298936D01*
X260935Y298913D01*
X260912Y298893D01*
X260837Y298787D01*
X260758Y298685D01*
X260746Y298658D01*
X260729Y298633D01*
X260683Y298512D01*
X260632Y298393D01*
X260627Y298364D01*
X260616Y298336D01*
X260602Y298207D01*
X260582Y298079D01*
X260584Y298049D01*
X260581Y298020D01*
X260599Y297891D01*
X260605Y297834D01*
X260605Y294091D01*
X259213Y290730D01*
X256640Y288157D01*
X253279Y286765D01*
X249641Y286765D01*
G37*
%LPD*%
%LPC*%
G36*
X478812Y110235D02*
X478812Y110235D01*
X474612Y114436D01*
X474534Y114496D01*
X474462Y114564D01*
X474409Y114593D01*
X474361Y114630D01*
X474270Y114670D01*
X474183Y114718D01*
X474124Y114733D01*
X474069Y114757D01*
X473971Y114772D01*
X473875Y114797D01*
X473775Y114803D01*
X473755Y114807D01*
X473742Y114805D01*
X473714Y114807D01*
X469276Y114807D01*
X417067Y167016D01*
X417067Y271134D01*
X475626Y329693D01*
X492220Y329693D01*
X492229Y329694D01*
X492238Y329693D01*
X492387Y329714D01*
X492535Y329733D01*
X492544Y329736D01*
X492553Y329737D01*
X492706Y329789D01*
X494244Y330427D01*
X496356Y330427D01*
X498306Y329619D01*
X499799Y328126D01*
X500607Y326176D01*
X500607Y324064D01*
X499799Y322114D01*
X498306Y320621D01*
X496356Y319813D01*
X494244Y319813D01*
X492706Y320451D01*
X492697Y320453D01*
X492689Y320458D01*
X492543Y320495D01*
X492399Y320535D01*
X492390Y320535D01*
X492381Y320537D01*
X492220Y320547D01*
X479940Y320547D01*
X479842Y320535D01*
X479743Y320532D01*
X479684Y320515D01*
X479624Y320507D01*
X479532Y320471D01*
X479437Y320443D01*
X479385Y320413D01*
X479329Y320390D01*
X479249Y320332D01*
X479163Y320282D01*
X479088Y320216D01*
X479071Y320204D01*
X479063Y320194D01*
X479042Y320176D01*
X426584Y267718D01*
X426524Y267639D01*
X426456Y267567D01*
X426427Y267514D01*
X426390Y267466D01*
X426350Y267375D01*
X426302Y267289D01*
X426287Y267230D01*
X426263Y267175D01*
X426248Y267077D01*
X426223Y266981D01*
X426217Y266881D01*
X426213Y266860D01*
X426215Y266848D01*
X426213Y266820D01*
X426213Y171330D01*
X426225Y171232D01*
X426228Y171133D01*
X426245Y171074D01*
X426253Y171014D01*
X426289Y170922D01*
X426317Y170827D01*
X426347Y170775D01*
X426370Y170719D01*
X426428Y170639D01*
X426478Y170553D01*
X426544Y170478D01*
X426556Y170461D01*
X426566Y170453D01*
X426584Y170432D01*
X472692Y124324D01*
X472771Y124264D01*
X472843Y124196D01*
X472896Y124167D01*
X472944Y124130D01*
X473035Y124090D01*
X473121Y124042D01*
X473180Y124027D01*
X473235Y124003D01*
X473333Y123988D01*
X473429Y123963D01*
X473529Y123957D01*
X473550Y123953D01*
X473562Y123955D01*
X473590Y123953D01*
X473714Y123953D01*
X473813Y123965D01*
X473912Y123968D01*
X473970Y123985D01*
X474030Y123993D01*
X474122Y124029D01*
X474217Y124057D01*
X474269Y124087D01*
X474326Y124110D01*
X474406Y124168D01*
X474491Y124218D01*
X474566Y124284D01*
X474583Y124296D01*
X474591Y124306D01*
X474612Y124324D01*
X478812Y128525D01*
X486388Y128525D01*
X491745Y123168D01*
X491745Y115592D01*
X486388Y110235D01*
X478812Y110235D01*
G37*
%LPD*%
%LPC*%
G36*
X478812Y59435D02*
X478812Y59435D01*
X474612Y63636D01*
X474534Y63696D01*
X474462Y63764D01*
X474409Y63793D01*
X474361Y63830D01*
X474270Y63870D01*
X474183Y63918D01*
X474124Y63933D01*
X474069Y63957D01*
X473971Y63972D01*
X473875Y63997D01*
X473775Y64003D01*
X473755Y64007D01*
X473742Y64005D01*
X473714Y64007D01*
X446416Y64007D01*
X394207Y116216D01*
X394207Y282670D01*
X394206Y282679D01*
X394207Y282688D01*
X394186Y282837D01*
X394167Y282985D01*
X394164Y282994D01*
X394163Y283003D01*
X394111Y283156D01*
X393473Y284694D01*
X393473Y286806D01*
X394281Y288756D01*
X395774Y290249D01*
X397724Y291057D01*
X399836Y291057D01*
X401786Y290249D01*
X403279Y288756D01*
X404087Y286806D01*
X404087Y284694D01*
X403449Y283156D01*
X403447Y283147D01*
X403442Y283139D01*
X403405Y282993D01*
X403365Y282849D01*
X403365Y282840D01*
X403363Y282831D01*
X403353Y282670D01*
X403353Y120530D01*
X403365Y120432D01*
X403368Y120333D01*
X403385Y120274D01*
X403393Y120214D01*
X403429Y120122D01*
X403457Y120027D01*
X403487Y119975D01*
X403510Y119919D01*
X403568Y119839D01*
X403618Y119753D01*
X403684Y119678D01*
X403696Y119661D01*
X403706Y119653D01*
X403724Y119632D01*
X449832Y73524D01*
X449911Y73464D01*
X449983Y73396D01*
X450036Y73367D01*
X450084Y73330D01*
X450175Y73290D01*
X450261Y73242D01*
X450320Y73227D01*
X450375Y73203D01*
X450473Y73188D01*
X450569Y73163D01*
X450669Y73157D01*
X450690Y73153D01*
X450702Y73155D01*
X450730Y73153D01*
X473714Y73153D01*
X473813Y73165D01*
X473912Y73168D01*
X473970Y73185D01*
X474030Y73193D01*
X474122Y73229D01*
X474217Y73257D01*
X474269Y73287D01*
X474326Y73310D01*
X474406Y73368D01*
X474491Y73418D01*
X474566Y73484D01*
X474583Y73496D01*
X474591Y73506D01*
X474612Y73524D01*
X478812Y77725D01*
X486388Y77725D01*
X491745Y72368D01*
X491745Y64792D01*
X486388Y59435D01*
X478812Y59435D01*
G37*
%LPD*%
%LPC*%
G36*
X176744Y168683D02*
X176744Y168683D01*
X174794Y169491D01*
X173301Y170984D01*
X172493Y172934D01*
X172493Y175046D01*
X173301Y176996D01*
X174794Y178489D01*
X176744Y179297D01*
X177384Y179297D01*
X177482Y179309D01*
X177581Y179312D01*
X177640Y179329D01*
X177700Y179337D01*
X177792Y179373D01*
X177887Y179401D01*
X177939Y179431D01*
X177995Y179454D01*
X178075Y179512D01*
X178161Y179562D01*
X178236Y179628D01*
X178253Y179640D01*
X178261Y179650D01*
X178282Y179668D01*
X366699Y368085D01*
X366704Y368093D01*
X366712Y368099D01*
X366802Y368218D01*
X366894Y368337D01*
X366897Y368345D01*
X366903Y368353D01*
X366974Y368497D01*
X367611Y370036D01*
X369104Y371529D01*
X371054Y372337D01*
X373166Y372337D01*
X375116Y371529D01*
X376609Y370036D01*
X377417Y368086D01*
X377417Y365974D01*
X376609Y364024D01*
X375116Y362531D01*
X373577Y361894D01*
X373569Y361889D01*
X373560Y361887D01*
X373431Y361810D01*
X373301Y361736D01*
X373294Y361730D01*
X373286Y361725D01*
X373165Y361619D01*
X180964Y169417D01*
X180880Y169417D01*
X180871Y169416D01*
X180862Y169417D01*
X180713Y169396D01*
X180565Y169377D01*
X180556Y169374D01*
X180547Y169373D01*
X180394Y169321D01*
X178856Y168683D01*
X176744Y168683D01*
G37*
%LPD*%
%LPC*%
G36*
X212304Y168683D02*
X212304Y168683D01*
X210354Y169491D01*
X208861Y170984D01*
X208053Y172934D01*
X208053Y175046D01*
X208861Y176996D01*
X210354Y178489D01*
X211893Y179126D01*
X211901Y179131D01*
X211910Y179133D01*
X212039Y179210D01*
X212169Y179284D01*
X212176Y179290D01*
X212184Y179295D01*
X212305Y179401D01*
X380376Y347473D01*
X380460Y347473D01*
X380469Y347474D01*
X380478Y347473D01*
X380627Y347494D01*
X380775Y347513D01*
X380784Y347516D01*
X380793Y347517D01*
X380946Y347569D01*
X382484Y348207D01*
X384596Y348207D01*
X386546Y347399D01*
X388039Y345906D01*
X388847Y343956D01*
X388847Y341844D01*
X388039Y339894D01*
X386546Y338401D01*
X384596Y337593D01*
X383956Y337593D01*
X383858Y337581D01*
X383759Y337578D01*
X383700Y337561D01*
X383640Y337553D01*
X383548Y337517D01*
X383453Y337489D01*
X383401Y337459D01*
X383345Y337436D01*
X383265Y337378D01*
X383179Y337328D01*
X383104Y337262D01*
X383087Y337250D01*
X383079Y337240D01*
X383058Y337222D01*
X218771Y172935D01*
X218766Y172927D01*
X218758Y172921D01*
X218668Y172801D01*
X218576Y172683D01*
X218573Y172675D01*
X218567Y172667D01*
X218496Y172523D01*
X217859Y170984D01*
X216366Y169491D01*
X214416Y168683D01*
X212304Y168683D01*
G37*
%LPD*%
%LPC*%
G36*
X478812Y161035D02*
X478812Y161035D01*
X473455Y166392D01*
X473455Y172332D01*
X473443Y172430D01*
X473440Y172529D01*
X473423Y172588D01*
X473415Y172648D01*
X473379Y172740D01*
X473351Y172835D01*
X473321Y172887D01*
X473298Y172943D01*
X473240Y173023D01*
X473190Y173109D01*
X473124Y173184D01*
X473112Y173201D01*
X473102Y173209D01*
X473084Y173230D01*
X457707Y188606D01*
X457707Y250814D01*
X525156Y318263D01*
X540480Y318263D01*
X540489Y318264D01*
X540498Y318263D01*
X540647Y318284D01*
X540795Y318303D01*
X540804Y318306D01*
X540813Y318307D01*
X540966Y318359D01*
X542504Y318997D01*
X544616Y318997D01*
X546566Y318189D01*
X548059Y316696D01*
X548867Y314746D01*
X548867Y312634D01*
X548059Y310684D01*
X546566Y309191D01*
X544616Y308383D01*
X542504Y308383D01*
X540966Y309021D01*
X540957Y309023D01*
X540949Y309028D01*
X540803Y309065D01*
X540659Y309105D01*
X540650Y309105D01*
X540641Y309107D01*
X540480Y309117D01*
X529470Y309117D01*
X529372Y309105D01*
X529273Y309102D01*
X529214Y309085D01*
X529154Y309077D01*
X529062Y309041D01*
X528967Y309013D01*
X528915Y308983D01*
X528859Y308960D01*
X528779Y308902D01*
X528693Y308852D01*
X528618Y308786D01*
X528601Y308774D01*
X528593Y308764D01*
X528572Y308746D01*
X467224Y247398D01*
X467164Y247319D01*
X467096Y247247D01*
X467067Y247194D01*
X467030Y247146D01*
X466990Y247055D01*
X466942Y246969D01*
X466927Y246910D01*
X466903Y246855D01*
X466888Y246757D01*
X466863Y246661D01*
X466857Y246561D01*
X466853Y246540D01*
X466855Y246528D01*
X466853Y246500D01*
X466853Y192920D01*
X466865Y192822D01*
X466868Y192723D01*
X466875Y192700D01*
X466875Y192696D01*
X466883Y192671D01*
X466885Y192664D01*
X466893Y192604D01*
X466929Y192512D01*
X466957Y192417D01*
X466987Y192365D01*
X467010Y192309D01*
X467068Y192229D01*
X467118Y192143D01*
X467184Y192068D01*
X467196Y192051D01*
X467206Y192043D01*
X467224Y192022D01*
X479550Y179696D01*
X479629Y179636D01*
X479701Y179568D01*
X479754Y179539D01*
X479802Y179502D01*
X479893Y179462D01*
X479979Y179414D01*
X480038Y179399D01*
X480093Y179375D01*
X480191Y179360D01*
X480287Y179335D01*
X480387Y179329D01*
X480408Y179325D01*
X480420Y179327D01*
X480448Y179325D01*
X486388Y179325D01*
X491745Y173968D01*
X491745Y166392D01*
X486388Y161035D01*
X478812Y161035D01*
G37*
%LPD*%
%LPC*%
G36*
X565796Y39877D02*
X565796Y39877D01*
X542038Y63636D01*
X541959Y63696D01*
X541887Y63764D01*
X541834Y63793D01*
X541786Y63830D01*
X541695Y63870D01*
X541609Y63918D01*
X541550Y63933D01*
X541495Y63957D01*
X541397Y63972D01*
X541301Y63997D01*
X541201Y64003D01*
X541180Y64007D01*
X541168Y64005D01*
X541140Y64007D01*
X516886Y64007D01*
X516787Y63995D01*
X516688Y63992D01*
X516630Y63975D01*
X516570Y63967D01*
X516478Y63931D01*
X516383Y63903D01*
X516331Y63873D01*
X516274Y63850D01*
X516194Y63792D01*
X516109Y63742D01*
X516034Y63676D01*
X516017Y63664D01*
X516009Y63654D01*
X515988Y63636D01*
X511788Y59435D01*
X504212Y59435D01*
X498855Y64792D01*
X498855Y72368D01*
X504212Y77725D01*
X511788Y77725D01*
X515988Y73524D01*
X516066Y73464D01*
X516138Y73396D01*
X516191Y73367D01*
X516239Y73330D01*
X516330Y73290D01*
X516417Y73242D01*
X516476Y73227D01*
X516531Y73203D01*
X516629Y73188D01*
X516725Y73163D01*
X516825Y73157D01*
X516845Y73153D01*
X516858Y73155D01*
X516886Y73153D01*
X545454Y73153D01*
X569212Y49394D01*
X569291Y49334D01*
X569363Y49266D01*
X569416Y49237D01*
X569464Y49200D01*
X569555Y49160D01*
X569641Y49112D01*
X569700Y49097D01*
X569755Y49073D01*
X569853Y49058D01*
X569949Y49033D01*
X570049Y49027D01*
X570070Y49023D01*
X570082Y49025D01*
X570110Y49023D01*
X630040Y49023D01*
X630138Y49035D01*
X630237Y49038D01*
X630296Y49055D01*
X630356Y49063D01*
X630448Y49099D01*
X630543Y49127D01*
X630595Y49157D01*
X630651Y49180D01*
X630731Y49238D01*
X630817Y49288D01*
X630892Y49354D01*
X630909Y49366D01*
X630917Y49376D01*
X630938Y49394D01*
X634669Y53125D01*
X634674Y53133D01*
X634682Y53139D01*
X634771Y53257D01*
X634864Y53377D01*
X634867Y53385D01*
X634873Y53393D01*
X634944Y53537D01*
X635581Y55076D01*
X637074Y56569D01*
X639024Y57377D01*
X641136Y57377D01*
X643086Y56569D01*
X644579Y55076D01*
X645387Y53126D01*
X645387Y51014D01*
X644579Y49064D01*
X643086Y47571D01*
X641547Y46934D01*
X641539Y46929D01*
X641530Y46927D01*
X641402Y46851D01*
X641271Y46776D01*
X641264Y46770D01*
X641256Y46765D01*
X641135Y46659D01*
X634354Y39877D01*
X565796Y39877D01*
G37*
%LPD*%
%LPC*%
G36*
X478812Y135635D02*
X478812Y135635D01*
X473455Y140992D01*
X473455Y146932D01*
X473443Y147030D01*
X473440Y147129D01*
X473423Y147188D01*
X473415Y147248D01*
X473379Y147340D01*
X473351Y147435D01*
X473321Y147487D01*
X473298Y147543D01*
X473240Y147623D01*
X473190Y147709D01*
X473124Y147784D01*
X473112Y147801D01*
X473102Y147809D01*
X473084Y147830D01*
X436117Y184796D01*
X436117Y257270D01*
X436116Y257279D01*
X436117Y257288D01*
X436096Y257437D01*
X436077Y257585D01*
X436074Y257594D01*
X436073Y257603D01*
X436021Y257756D01*
X435383Y259294D01*
X435383Y261406D01*
X436191Y263356D01*
X437684Y264849D01*
X439634Y265657D01*
X441746Y265657D01*
X443696Y264849D01*
X445189Y263356D01*
X445997Y261406D01*
X445997Y259294D01*
X445359Y257756D01*
X445357Y257747D01*
X445352Y257739D01*
X445315Y257593D01*
X445275Y257449D01*
X445275Y257440D01*
X445273Y257431D01*
X445263Y257270D01*
X445263Y189110D01*
X445275Y189012D01*
X445278Y188913D01*
X445285Y188889D01*
X445285Y188888D01*
X445287Y188883D01*
X445295Y188854D01*
X445303Y188794D01*
X445339Y188702D01*
X445367Y188607D01*
X445397Y188555D01*
X445420Y188499D01*
X445478Y188419D01*
X445528Y188333D01*
X445594Y188258D01*
X445606Y188241D01*
X445616Y188233D01*
X445634Y188212D01*
X479550Y154296D01*
X479629Y154236D01*
X479701Y154168D01*
X479754Y154139D01*
X479802Y154102D01*
X479893Y154062D01*
X479979Y154014D01*
X480038Y153999D01*
X480093Y153975D01*
X480191Y153960D01*
X480287Y153935D01*
X480387Y153929D01*
X480408Y153925D01*
X480420Y153927D01*
X480448Y153925D01*
X486388Y153925D01*
X491745Y148568D01*
X491745Y140992D01*
X486388Y135635D01*
X478812Y135635D01*
G37*
%LPD*%
%LPC*%
G36*
X478812Y186435D02*
X478812Y186435D01*
X473455Y191792D01*
X473455Y199368D01*
X478812Y204725D01*
X484752Y204725D01*
X484850Y204737D01*
X484949Y204740D01*
X485008Y204757D01*
X485068Y204765D01*
X485160Y204801D01*
X485255Y204829D01*
X485307Y204859D01*
X485363Y204882D01*
X485443Y204940D01*
X485529Y204990D01*
X485604Y205056D01*
X485621Y205068D01*
X485629Y205078D01*
X485650Y205096D01*
X538616Y258062D01*
X538676Y258141D01*
X538744Y258213D01*
X538773Y258266D01*
X538810Y258314D01*
X538850Y258405D01*
X538898Y258491D01*
X538913Y258550D01*
X538937Y258605D01*
X538952Y258703D01*
X538977Y258799D01*
X538983Y258899D01*
X538987Y258920D01*
X538985Y258932D01*
X538987Y258960D01*
X538987Y287750D01*
X538986Y287759D01*
X538987Y287768D01*
X538966Y287917D01*
X538947Y288065D01*
X538944Y288074D01*
X538943Y288083D01*
X538891Y288236D01*
X538253Y289774D01*
X538253Y291886D01*
X539061Y293836D01*
X540554Y295329D01*
X542504Y296137D01*
X544616Y296137D01*
X546566Y295329D01*
X548059Y293836D01*
X548867Y291886D01*
X548867Y289774D01*
X548229Y288236D01*
X548227Y288227D01*
X548222Y288219D01*
X548185Y288073D01*
X548145Y287929D01*
X548145Y287920D01*
X548143Y287911D01*
X548133Y287750D01*
X548133Y254646D01*
X492116Y198630D01*
X492056Y198551D01*
X491988Y198479D01*
X491959Y198426D01*
X491922Y198378D01*
X491882Y198287D01*
X491834Y198201D01*
X491819Y198142D01*
X491795Y198087D01*
X491780Y197989D01*
X491755Y197893D01*
X491749Y197793D01*
X491745Y197772D01*
X491747Y197760D01*
X491745Y197732D01*
X491745Y191792D01*
X486388Y186435D01*
X478812Y186435D01*
G37*
%LPD*%
%LPC*%
G36*
X167008Y286765D02*
X167008Y286765D01*
X166115Y287658D01*
X166115Y304162D01*
X167008Y305055D01*
X168402Y305055D01*
X168520Y305070D01*
X168639Y305077D01*
X168677Y305090D01*
X168718Y305095D01*
X168828Y305138D01*
X168941Y305175D01*
X168976Y305197D01*
X169013Y305212D01*
X169109Y305281D01*
X169210Y305345D01*
X169238Y305375D01*
X169271Y305398D01*
X169347Y305490D01*
X169428Y305577D01*
X169448Y305612D01*
X169473Y305643D01*
X169524Y305751D01*
X169582Y305855D01*
X169592Y305895D01*
X169609Y305931D01*
X169631Y306048D01*
X169661Y306163D01*
X169665Y306223D01*
X169669Y306243D01*
X169667Y306264D01*
X169671Y306324D01*
X169671Y331312D01*
X170522Y333366D01*
X214004Y376848D01*
X216058Y377699D01*
X218282Y377699D01*
X220336Y376848D01*
X221908Y375276D01*
X222759Y373222D01*
X222759Y370998D01*
X221908Y368944D01*
X181220Y328257D01*
X181160Y328179D01*
X181092Y328106D01*
X181063Y328053D01*
X181026Y328006D01*
X180986Y327915D01*
X180938Y327828D01*
X180923Y327769D01*
X180899Y327714D01*
X180884Y327616D01*
X180859Y327520D01*
X180853Y327420D01*
X180849Y327400D01*
X180851Y327387D01*
X180849Y327359D01*
X180849Y306324D01*
X180864Y306205D01*
X180871Y306087D01*
X180884Y306049D01*
X180889Y306008D01*
X180932Y305898D01*
X180969Y305785D01*
X180991Y305750D01*
X181006Y305713D01*
X181075Y305617D01*
X181139Y305516D01*
X181169Y305488D01*
X181192Y305455D01*
X181284Y305379D01*
X181371Y305298D01*
X181406Y305278D01*
X181437Y305253D01*
X181545Y305202D01*
X181649Y305144D01*
X181689Y305134D01*
X181725Y305117D01*
X181842Y305095D01*
X181957Y305065D01*
X182017Y305061D01*
X182037Y305057D01*
X182058Y305059D01*
X182118Y305055D01*
X183512Y305055D01*
X184405Y304162D01*
X184405Y287658D01*
X183512Y286765D01*
X167008Y286765D01*
G37*
%LPD*%
%LPC*%
G36*
X203414Y75973D02*
X203414Y75973D01*
X201464Y76781D01*
X199971Y78274D01*
X199163Y80224D01*
X199163Y82336D01*
X199971Y84286D01*
X200542Y84856D01*
X200602Y84935D01*
X200670Y85007D01*
X200699Y85060D01*
X200736Y85108D01*
X200776Y85199D01*
X200824Y85285D01*
X200839Y85344D01*
X200863Y85400D01*
X200878Y85497D01*
X200903Y85593D01*
X200909Y85693D01*
X200913Y85714D01*
X200911Y85726D01*
X200913Y85754D01*
X200913Y142781D01*
X200901Y142879D01*
X200898Y142978D01*
X200881Y143036D01*
X200873Y143097D01*
X200837Y143189D01*
X200809Y143284D01*
X200779Y143336D01*
X200756Y143392D01*
X200698Y143472D01*
X200648Y143558D01*
X200582Y143633D01*
X200570Y143650D01*
X200560Y143657D01*
X200542Y143679D01*
X200039Y144182D01*
X199960Y144242D01*
X199888Y144310D01*
X199835Y144339D01*
X199787Y144376D01*
X199696Y144416D01*
X199610Y144464D01*
X199551Y144479D01*
X199495Y144503D01*
X199397Y144518D01*
X199302Y144543D01*
X199202Y144549D01*
X199181Y144553D01*
X199169Y144551D01*
X199141Y144553D01*
X198334Y144553D01*
X196384Y145361D01*
X194891Y146854D01*
X194083Y148804D01*
X194083Y150916D01*
X194891Y152866D01*
X196384Y154359D01*
X198334Y155167D01*
X200446Y155167D01*
X202396Y154359D01*
X203889Y152866D01*
X204697Y150916D01*
X204697Y150109D01*
X204709Y150011D01*
X204712Y149912D01*
X204729Y149854D01*
X204737Y149793D01*
X204773Y149701D01*
X204801Y149606D01*
X204831Y149554D01*
X204854Y149498D01*
X204912Y149418D01*
X204962Y149332D01*
X205028Y149257D01*
X205040Y149240D01*
X205050Y149233D01*
X205068Y149211D01*
X208027Y146253D01*
X208027Y85754D01*
X208039Y85656D01*
X208042Y85557D01*
X208059Y85498D01*
X208067Y85438D01*
X208103Y85346D01*
X208131Y85251D01*
X208161Y85199D01*
X208184Y85143D01*
X208242Y85063D01*
X208292Y84977D01*
X208358Y84902D01*
X208370Y84885D01*
X208380Y84878D01*
X208398Y84856D01*
X208969Y84286D01*
X209777Y82336D01*
X209777Y80224D01*
X208969Y78274D01*
X207476Y76781D01*
X205526Y75973D01*
X203414Y75973D01*
G37*
%LPD*%
%LPC*%
G36*
X174204Y125503D02*
X174204Y125503D01*
X172254Y126311D01*
X170761Y127804D01*
X169953Y129754D01*
X169953Y130561D01*
X169941Y130659D01*
X169938Y130758D01*
X169921Y130816D01*
X169913Y130877D01*
X169877Y130969D01*
X169849Y131064D01*
X169819Y131116D01*
X169796Y131172D01*
X169738Y131252D01*
X169688Y131338D01*
X169622Y131413D01*
X169610Y131430D01*
X169600Y131437D01*
X169582Y131459D01*
X156139Y144902D01*
X156060Y144962D01*
X155988Y145030D01*
X155935Y145059D01*
X155887Y145096D01*
X155796Y145136D01*
X155710Y145184D01*
X155651Y145199D01*
X155595Y145223D01*
X155497Y145238D01*
X155402Y145263D01*
X155302Y145269D01*
X155281Y145273D01*
X155269Y145271D01*
X155241Y145273D01*
X122824Y145273D01*
X122726Y145261D01*
X122627Y145258D01*
X122568Y145241D01*
X122508Y145233D01*
X122416Y145197D01*
X122321Y145169D01*
X122269Y145139D01*
X122213Y145116D01*
X122133Y145058D01*
X122047Y145008D01*
X121972Y144942D01*
X121955Y144930D01*
X121948Y144920D01*
X121926Y144902D01*
X121356Y144331D01*
X119406Y143523D01*
X117294Y143523D01*
X115344Y144331D01*
X113851Y145824D01*
X113043Y147774D01*
X113043Y149886D01*
X113851Y151836D01*
X115344Y153329D01*
X117294Y154137D01*
X119406Y154137D01*
X121356Y153329D01*
X121926Y152758D01*
X122005Y152698D01*
X122077Y152630D01*
X122130Y152601D01*
X122178Y152564D01*
X122269Y152524D01*
X122355Y152476D01*
X122414Y152461D01*
X122470Y152437D01*
X122567Y152422D01*
X122663Y152397D01*
X122763Y152391D01*
X122784Y152387D01*
X122796Y152389D01*
X122824Y152387D01*
X158713Y152387D01*
X174611Y136488D01*
X174690Y136428D01*
X174762Y136360D01*
X174815Y136331D01*
X174863Y136294D01*
X174954Y136254D01*
X175040Y136206D01*
X175099Y136191D01*
X175155Y136167D01*
X175253Y136152D01*
X175348Y136127D01*
X175448Y136121D01*
X175469Y136117D01*
X175481Y136119D01*
X175509Y136117D01*
X176316Y136117D01*
X178266Y135309D01*
X179759Y133816D01*
X180567Y131866D01*
X180567Y129754D01*
X179759Y127804D01*
X178266Y126311D01*
X176316Y125503D01*
X174204Y125503D01*
G37*
%LPD*%
%LPC*%
G36*
X504212Y110235D02*
X504212Y110235D01*
X498855Y115592D01*
X498855Y123168D01*
X504212Y128525D01*
X511788Y128525D01*
X517145Y123168D01*
X517145Y115592D01*
X511788Y110235D01*
X504212Y110235D01*
G37*
%LPD*%
%LPC*%
G36*
X504212Y84835D02*
X504212Y84835D01*
X498855Y90192D01*
X498855Y97768D01*
X504212Y103125D01*
X511788Y103125D01*
X517145Y97768D01*
X517145Y90192D01*
X511788Y84835D01*
X504212Y84835D01*
G37*
%LPD*%
%LPC*%
G36*
X504212Y34035D02*
X504212Y34035D01*
X498855Y39392D01*
X498855Y46968D01*
X504212Y52325D01*
X511788Y52325D01*
X517145Y46968D01*
X517145Y39392D01*
X511788Y34035D01*
X504212Y34035D01*
G37*
%LPD*%
%LPC*%
G36*
X478812Y84835D02*
X478812Y84835D01*
X473455Y90192D01*
X473455Y97768D01*
X478812Y103125D01*
X486388Y103125D01*
X491745Y97768D01*
X491745Y90192D01*
X486388Y84835D01*
X478812Y84835D01*
G37*
%LPD*%
%LPC*%
G36*
X504212Y186435D02*
X504212Y186435D01*
X498855Y191792D01*
X498855Y199368D01*
X504212Y204725D01*
X511788Y204725D01*
X517145Y199368D01*
X517145Y191792D01*
X511788Y186435D01*
X504212Y186435D01*
G37*
%LPD*%
%LPC*%
G36*
X504212Y161035D02*
X504212Y161035D01*
X498855Y166392D01*
X498855Y173968D01*
X504212Y179325D01*
X511788Y179325D01*
X517145Y173968D01*
X517145Y166392D01*
X511788Y161035D01*
X504212Y161035D01*
G37*
%LPD*%
%LPC*%
G36*
X504212Y135635D02*
X504212Y135635D01*
X498855Y140992D01*
X498855Y148568D01*
X504212Y153925D01*
X511788Y153925D01*
X517145Y148568D01*
X517145Y140992D01*
X511788Y135635D01*
X504212Y135635D01*
G37*
%LPD*%
%LPC*%
G36*
X478812Y34035D02*
X478812Y34035D01*
X473455Y39392D01*
X473455Y46968D01*
X478812Y52325D01*
X486388Y52325D01*
X491745Y46968D01*
X491745Y39392D01*
X486388Y34035D01*
X478812Y34035D01*
G37*
%LPD*%
%LPC*%
G36*
X903685Y28193D02*
X903685Y28193D01*
X903685Y53195D01*
X912480Y53195D01*
X913127Y53022D01*
X913706Y52687D01*
X914179Y52214D01*
X914514Y51635D01*
X914687Y50988D01*
X914687Y28193D01*
X903685Y28193D01*
G37*
%LPD*%
%LPC*%
G36*
X825213Y28193D02*
X825213Y28193D01*
X825213Y50988D01*
X825386Y51635D01*
X825721Y52214D01*
X826194Y52687D01*
X826773Y53022D01*
X827420Y53195D01*
X836215Y53195D01*
X836215Y28193D01*
X825213Y28193D01*
G37*
%LPD*%
%LPC*%
G36*
X87844Y99877D02*
X87844Y99877D01*
X85894Y100685D01*
X84401Y102178D01*
X83593Y104128D01*
X83593Y106465D01*
X83581Y106563D01*
X83578Y106662D01*
X83561Y106720D01*
X83553Y106780D01*
X83517Y106872D01*
X83489Y106967D01*
X83459Y107020D01*
X83436Y107076D01*
X83378Y107156D01*
X83328Y107241D01*
X83262Y107317D01*
X83250Y107333D01*
X83240Y107341D01*
X83222Y107362D01*
X77926Y112658D01*
X77848Y112718D01*
X77776Y112786D01*
X77723Y112815D01*
X77675Y112852D01*
X77584Y112892D01*
X77497Y112940D01*
X77439Y112955D01*
X77383Y112979D01*
X77285Y112994D01*
X77189Y113019D01*
X77089Y113025D01*
X77069Y113029D01*
X77057Y113027D01*
X77029Y113029D01*
X75144Y113029D01*
X73194Y113837D01*
X71701Y115330D01*
X70893Y117280D01*
X70893Y119392D01*
X71701Y121342D01*
X73194Y122835D01*
X75144Y123643D01*
X77256Y123643D01*
X79206Y122835D01*
X80699Y121342D01*
X81507Y119392D01*
X81507Y117507D01*
X81519Y117409D01*
X81522Y117310D01*
X81539Y117252D01*
X81547Y117192D01*
X81583Y117100D01*
X81611Y117005D01*
X81641Y116952D01*
X81664Y116896D01*
X81722Y116816D01*
X81772Y116731D01*
X81838Y116655D01*
X81850Y116639D01*
X81860Y116631D01*
X81878Y116610D01*
X87626Y110862D01*
X87704Y110802D01*
X87776Y110734D01*
X87829Y110705D01*
X87877Y110668D01*
X87968Y110628D01*
X88055Y110580D01*
X88113Y110565D01*
X88169Y110541D01*
X88267Y110526D01*
X88363Y110501D01*
X88463Y110495D01*
X88483Y110491D01*
X88495Y110493D01*
X88523Y110491D01*
X89956Y110491D01*
X91906Y109683D01*
X93399Y108190D01*
X94207Y106240D01*
X94207Y104128D01*
X93399Y102178D01*
X91906Y100685D01*
X89956Y99877D01*
X87844Y99877D01*
G37*
%LPD*%
%LPC*%
G36*
X393437Y315594D02*
X393437Y315594D01*
X393064Y315967D01*
X393064Y358403D01*
X393437Y358776D01*
X397773Y358776D01*
X398146Y358403D01*
X398146Y315967D01*
X397773Y315594D01*
X393437Y315594D01*
G37*
%LPD*%
%LPC*%
G36*
X445507Y315594D02*
X445507Y315594D01*
X445134Y315967D01*
X445134Y358403D01*
X445507Y358776D01*
X449843Y358776D01*
X450216Y358403D01*
X450216Y315967D01*
X449843Y315594D01*
X445507Y315594D01*
G37*
%LPD*%
%LPC*%
G36*
X401057Y307974D02*
X401057Y307974D01*
X400684Y308347D01*
X400684Y312683D01*
X401057Y313056D01*
X442223Y313056D01*
X442596Y312683D01*
X442596Y308347D01*
X442223Y307974D01*
X401057Y307974D01*
G37*
%LPD*%
%LPC*%
G36*
X401057Y361314D02*
X401057Y361314D01*
X400684Y361687D01*
X400684Y366023D01*
X401057Y366396D01*
X442223Y366396D01*
X442596Y366023D01*
X442596Y361687D01*
X442223Y361314D01*
X401057Y361314D01*
G37*
%LPD*%
%LPC*%
G36*
X19896Y237045D02*
X19896Y237045D01*
X16932Y238273D01*
X14663Y240542D01*
X13435Y243506D01*
X13435Y246714D01*
X14663Y249678D01*
X16932Y251947D01*
X19896Y253175D01*
X23104Y253175D01*
X26068Y251947D01*
X28337Y249678D01*
X29565Y246714D01*
X29565Y243506D01*
X28337Y240542D01*
X26068Y238273D01*
X23104Y237045D01*
X19896Y237045D01*
G37*
%LPD*%
%LPC*%
G36*
X19896Y217045D02*
X19896Y217045D01*
X16932Y218273D01*
X14663Y220542D01*
X13435Y223506D01*
X13435Y226714D01*
X14663Y229678D01*
X16932Y231947D01*
X19896Y233175D01*
X23104Y233175D01*
X26068Y231947D01*
X28337Y229678D01*
X29565Y226714D01*
X29565Y223506D01*
X28337Y220542D01*
X26068Y218273D01*
X23104Y217045D01*
X19896Y217045D01*
G37*
%LPD*%
%LPC*%
G36*
X35999Y383499D02*
X35999Y383499D01*
X35999Y403301D01*
X36437Y403232D01*
X38314Y402622D01*
X40073Y401726D01*
X41670Y400566D01*
X43066Y399170D01*
X44226Y397573D01*
X45122Y395814D01*
X45732Y393937D01*
X46041Y391987D01*
X46041Y383499D01*
X35999Y383499D01*
G37*
%LPD*%
%LPC*%
G36*
X65999Y335499D02*
X65999Y335499D01*
X65999Y345541D01*
X74487Y345541D01*
X76437Y345232D01*
X78314Y344622D01*
X80073Y343726D01*
X81670Y342566D01*
X83066Y341170D01*
X84226Y339573D01*
X85122Y337814D01*
X85732Y335937D01*
X85801Y335499D01*
X65999Y335499D01*
G37*
%LPD*%
%LPC*%
G36*
X41199Y335499D02*
X41199Y335499D01*
X41268Y335937D01*
X41878Y337814D01*
X42774Y339573D01*
X43934Y341170D01*
X45330Y342566D01*
X46927Y343726D01*
X48686Y344622D01*
X50563Y345232D01*
X52513Y345541D01*
X61001Y345541D01*
X61001Y335499D01*
X41199Y335499D01*
G37*
%LPD*%
%LPC*%
G36*
X35999Y378501D02*
X35999Y378501D01*
X46041Y378501D01*
X46041Y370013D01*
X45732Y368063D01*
X45122Y366186D01*
X44226Y364427D01*
X43066Y362830D01*
X41670Y361434D01*
X40073Y360274D01*
X38314Y359378D01*
X36437Y358768D01*
X35999Y358699D01*
X35999Y378501D01*
G37*
%LPD*%
%LPC*%
G36*
X20959Y383499D02*
X20959Y383499D01*
X20959Y391987D01*
X21268Y393937D01*
X21878Y395814D01*
X22774Y397573D01*
X23934Y399170D01*
X25330Y400566D01*
X26927Y401726D01*
X28686Y402622D01*
X30563Y403232D01*
X31001Y403301D01*
X31001Y383499D01*
X20959Y383499D01*
G37*
%LPD*%
%LPC*%
G36*
X65999Y320459D02*
X65999Y320459D01*
X65999Y330501D01*
X85801Y330501D01*
X85732Y330063D01*
X85122Y328186D01*
X84226Y326427D01*
X83066Y324830D01*
X81670Y323434D01*
X80073Y322274D01*
X78314Y321378D01*
X76437Y320768D01*
X74487Y320459D01*
X65999Y320459D01*
G37*
%LPD*%
%LPC*%
G36*
X30563Y358768D02*
X30563Y358768D01*
X28686Y359378D01*
X26927Y360274D01*
X25330Y361434D01*
X23934Y362830D01*
X22774Y364427D01*
X21878Y366186D01*
X21268Y368063D01*
X20959Y370013D01*
X20959Y378501D01*
X31001Y378501D01*
X31001Y358699D01*
X30563Y358768D01*
G37*
%LPD*%
%LPC*%
G36*
X52513Y320459D02*
X52513Y320459D01*
X50563Y320768D01*
X48686Y321378D01*
X46927Y322274D01*
X45330Y323434D01*
X43934Y324830D01*
X42774Y326427D01*
X41878Y328186D01*
X41268Y330063D01*
X41199Y330501D01*
X61001Y330501D01*
X61001Y320459D01*
X52513Y320459D01*
G37*
%LPD*%
%LPC*%
G36*
X152137Y97154D02*
X152137Y97154D01*
X151764Y97527D01*
X151764Y125993D01*
X152137Y126366D01*
X156473Y126366D01*
X156846Y125993D01*
X156846Y97527D01*
X156473Y97154D01*
X152137Y97154D01*
G37*
%LPD*%
%LPC*%
G36*
X110227Y97154D02*
X110227Y97154D01*
X109854Y97527D01*
X109854Y125993D01*
X110227Y126366D01*
X114563Y126366D01*
X114936Y125993D01*
X114936Y97527D01*
X114563Y97154D01*
X110227Y97154D01*
G37*
%LPD*%
%LPC*%
G36*
X119117Y130174D02*
X119117Y130174D01*
X118744Y130547D01*
X118744Y134883D01*
X119117Y135256D01*
X147583Y135256D01*
X147956Y134883D01*
X147956Y130547D01*
X147583Y130174D01*
X119117Y130174D01*
G37*
%LPD*%
%LPC*%
G36*
X119117Y88264D02*
X119117Y88264D01*
X118744Y88637D01*
X118744Y92973D01*
X119117Y93346D01*
X147583Y93346D01*
X147956Y92973D01*
X147956Y88637D01*
X147583Y88264D01*
X119117Y88264D01*
G37*
%LPD*%
%LPC*%
G36*
X24039Y310649D02*
X24039Y310649D01*
X24039Y321670D01*
X24729Y321561D01*
X26794Y320890D01*
X28728Y319905D01*
X30484Y318629D01*
X32019Y317094D01*
X33295Y315338D01*
X34280Y313404D01*
X34951Y311339D01*
X35060Y310649D01*
X24039Y310649D01*
G37*
%LPD*%
%LPC*%
G36*
X24039Y179571D02*
X24039Y179571D01*
X35060Y179571D01*
X34951Y178881D01*
X34280Y176816D01*
X33295Y174882D01*
X32019Y173126D01*
X30484Y171591D01*
X28728Y170315D01*
X26794Y169330D01*
X24729Y168659D01*
X24039Y168550D01*
X24039Y179571D01*
G37*
%LPD*%
%LPC*%
G36*
X17039Y81299D02*
X17039Y81299D01*
X17039Y90042D01*
X17203Y90017D01*
X18930Y89455D01*
X20549Y88631D01*
X22018Y87563D01*
X23303Y86278D01*
X24371Y84809D01*
X25195Y83190D01*
X25757Y81463D01*
X25782Y81299D01*
X17039Y81299D01*
G37*
%LPD*%
%LPC*%
G36*
X17039Y147299D02*
X17039Y147299D01*
X17039Y156042D01*
X17203Y156017D01*
X18930Y155455D01*
X20549Y154631D01*
X22018Y153563D01*
X23303Y152278D01*
X24371Y150809D01*
X25195Y149190D01*
X25757Y147463D01*
X25782Y147299D01*
X17039Y147299D01*
G37*
%LPD*%
%LPC*%
G36*
X17039Y142221D02*
X17039Y142221D01*
X25782Y142221D01*
X25757Y142057D01*
X25195Y140330D01*
X24371Y138711D01*
X23303Y137242D01*
X22018Y135957D01*
X20549Y134889D01*
X18930Y134065D01*
X17203Y133503D01*
X17039Y133478D01*
X17039Y142221D01*
G37*
%LPD*%
%LPC*%
G36*
X17039Y76221D02*
X17039Y76221D01*
X25782Y76221D01*
X25757Y76057D01*
X25195Y74330D01*
X24371Y72711D01*
X23303Y71242D01*
X22018Y69957D01*
X20549Y68889D01*
X18930Y68065D01*
X17203Y67503D01*
X17039Y67478D01*
X17039Y76221D01*
G37*
%LPD*%
%LPC*%
G36*
X203199Y298449D02*
X203199Y298449D01*
X203199Y305769D01*
X204560Y305326D01*
X205985Y304600D01*
X207279Y303660D01*
X208410Y302529D01*
X209350Y301235D01*
X210076Y299810D01*
X210519Y298449D01*
X203199Y298449D01*
G37*
%LPD*%
%LPC*%
G36*
X190801Y298449D02*
X190801Y298449D01*
X191244Y299810D01*
X191970Y301235D01*
X192910Y302529D01*
X194041Y303660D01*
X195335Y304600D01*
X196760Y305326D01*
X198121Y305769D01*
X198121Y298449D01*
X190801Y298449D01*
G37*
%LPD*%
%LPC*%
G36*
X203199Y293371D02*
X203199Y293371D01*
X210519Y293371D01*
X210076Y292010D01*
X209350Y290585D01*
X208410Y289291D01*
X207279Y288160D01*
X205985Y287220D01*
X204560Y286494D01*
X203199Y286051D01*
X203199Y293371D01*
G37*
%LPD*%
%LPC*%
G36*
X196760Y286494D02*
X196760Y286494D01*
X195335Y287220D01*
X194041Y288160D01*
X192910Y289291D01*
X191970Y290585D01*
X191244Y292010D01*
X190801Y293371D01*
X198121Y293371D01*
X198121Y286051D01*
X196760Y286494D01*
G37*
%LPD*%
%LPC*%
G36*
X200659Y295909D02*
X200659Y295909D01*
X200659Y295911D01*
X200661Y295911D01*
X200661Y295909D01*
X200659Y295909D01*
G37*
%LPD*%
D10*
X14500Y144760D03*
X14500Y78760D03*
D11*
X94500Y371000D02*
X94500Y391000D01*
X33500Y391000D02*
X33500Y371000D01*
X53500Y333000D02*
X73500Y333000D01*
D12*
X175260Y295910D03*
D13*
X200660Y295910D03*
X226060Y295910D03*
X251460Y295910D03*
D14*
X901146Y25654D03*
X838754Y25654D03*
D15*
X482600Y195580D03*
X508000Y195580D03*
X482600Y170180D03*
X508000Y170180D03*
X482600Y144780D03*
X508000Y144780D03*
X482600Y119380D03*
X508000Y119380D03*
X482600Y93980D03*
X508000Y93980D03*
X482600Y68580D03*
X508000Y68580D03*
X482600Y43180D03*
X508000Y43180D03*
D16*
X21500Y245110D03*
X21500Y285110D03*
X21500Y225110D03*
D17*
X21500Y308110D03*
X21500Y182110D03*
D16*
X21500Y205110D03*
D10*
X407670Y351790D03*
X435610Y351790D03*
X421640Y336820D03*
X407670Y322580D03*
X435610Y322580D03*
D18*
X124460Y120650D03*
X142240Y120650D03*
X142240Y102870D03*
X124460Y102870D03*
D19*
X768350Y339090D03*
X742950Y339090D03*
X784860Y318770D03*
X768350Y297180D03*
X742950Y297180D03*
X844550Y339090D03*
X869950Y339090D03*
X895350Y339090D03*
X826770Y318770D03*
X911860Y318770D03*
X895350Y297180D03*
X869950Y297180D03*
X844550Y297180D03*
X580390Y392430D03*
X580390Y369570D03*
X580390Y346710D03*
X572770Y318770D03*
X590550Y297180D03*
X572770Y78740D03*
X590550Y57150D03*
X144780Y379730D03*
X130810Y359410D03*
X119380Y379730D03*
X149860Y336550D03*
X195580Y372110D03*
X261620Y342900D03*
X80010Y22860D03*
X143510Y38100D03*
X143510Y62230D03*
X129540Y22860D03*
X26670Y99060D03*
X59690Y99060D03*
X101600Y193040D03*
X819150Y15240D03*
X819150Y25400D03*
X819150Y35560D03*
X819150Y45720D03*
X819150Y55880D03*
X819150Y66040D03*
X819150Y76200D03*
X819150Y86360D03*
X822960Y95250D03*
X829310Y104140D03*
X839470Y104140D03*
X849630Y104140D03*
X859790Y104140D03*
X869950Y104140D03*
X880110Y104140D03*
X890270Y104140D03*
X900430Y104140D03*
X910590Y104140D03*
X916940Y95250D03*
X920750Y86360D03*
X920750Y76200D03*
X920750Y66040D03*
X920750Y55880D03*
X920750Y45720D03*
X920750Y35560D03*
X920750Y25400D03*
X920750Y15240D03*
X802640Y20320D03*
X801370Y40640D03*
X801370Y62230D03*
X801370Y78740D03*
X803910Y95250D03*
X938530Y60960D03*
X810260Y109220D03*
X824230Y120650D03*
X844550Y120650D03*
X862330Y120650D03*
X916940Y120650D03*
X896620Y120650D03*
X878840Y120650D03*
X938530Y78740D03*
X935990Y95250D03*
X928370Y109220D03*
X120650Y212090D03*
X82550Y212090D03*
X240030Y361950D03*
X825500Y190500D03*
X876300Y190500D03*
X825500Y139700D03*
X876300Y139700D03*
X927100Y139700D03*
X927100Y190500D03*
X977900Y228600D03*
X977900Y177800D03*
X977900Y127000D03*
X977900Y76200D03*
X977900Y254000D03*
X977900Y279400D03*
X977900Y304800D03*
X927100Y241300D03*
X876300Y241300D03*
X825500Y241300D03*
X774700Y241300D03*
X723900Y241300D03*
X673100Y241300D03*
X622300Y241300D03*
X571500Y241300D03*
X927100Y292100D03*
X774700Y190500D03*
X723900Y190500D03*
X774700Y139700D03*
X800100Y215900D03*
X749300Y215900D03*
X850900Y215900D03*
X901700Y215900D03*
X901700Y266700D03*
X850900Y266700D03*
X952500Y266700D03*
X952500Y215900D03*
X952500Y165100D03*
X901700Y165100D03*
X850900Y165100D03*
X800100Y165100D03*
X749300Y165100D03*
X698500Y215900D03*
X647700Y215900D03*
X596900Y215900D03*
X723900Y292100D03*
X673100Y292100D03*
X622300Y292100D03*
X800100Y266700D03*
X952500Y317500D03*
X952500Y114300D03*
X762000Y25400D03*
X711200Y25400D03*
X660400Y25400D03*
X685800Y25400D03*
X736600Y25400D03*
X977900Y101600D03*
X977900Y152400D03*
X977900Y203200D03*
X977900Y330200D03*
X977900Y355600D03*
X977900Y381000D03*
X977900Y406400D03*
X635000Y25400D03*
X609600Y25400D03*
X584200Y25400D03*
X558800Y25400D03*
X533400Y25400D03*
X508000Y25400D03*
X482600Y25400D03*
X457200Y25400D03*
X431800Y25400D03*
X251460Y25400D03*
X165100Y25400D03*
X101600Y165100D03*
X101600Y279400D03*
X109220Y336550D03*
X701040Y355600D03*
X708660Y341630D03*
X701040Y396240D03*
X740410Y393700D03*
X786130Y25400D03*
X129540Y314960D03*
X542290Y394970D03*
X458470Y337820D03*
X283210Y361950D03*
X749300Y266700D03*
X698500Y266700D03*
X647700Y266700D03*
X596900Y266700D03*
X800100Y304800D03*
X825500Y292100D03*
X406400Y25400D03*
X381000Y25400D03*
X355600Y25400D03*
X330200Y25400D03*
X304800Y25400D03*
X279400Y25400D03*
X800100Y342900D03*
X927100Y342900D03*
X317500Y139700D03*
X317500Y177800D03*
X368300Y139700D03*
X368300Y165100D03*
X304800Y76200D03*
X342900Y76200D03*
X381000Y88900D03*
X241300Y139700D03*
X152400Y254000D03*
X152400Y215900D03*
X495300Y304800D03*
X457200Y279400D03*
X774700Y50800D03*
X749300Y50800D03*
X723900Y50800D03*
X698500Y50800D03*
X673100Y50800D03*
D10*
X139160Y428990D03*
X170720Y428990D03*
X139160Y463550D03*
X170720Y463550D03*
D19*
X613410Y417830D03*
X613410Y408940D03*
X604520Y417830D03*
X604520Y408940D03*
D10*
X154940Y445770D03*
D18*
X76200Y481330D03*
X76200Y458470D03*
X76200Y435610D03*
X233680Y481330D03*
X233680Y458470D03*
X233680Y435610D03*
X233680Y412750D03*
X101600Y481330D03*
X208280Y481330D03*
X208280Y412750D03*
X101600Y458470D03*
X101600Y435610D03*
X208280Y435610D03*
X208280Y458470D03*
D19*
X622300Y417830D03*
X622300Y408940D03*
X252730Y440690D03*
X261620Y440690D03*
X252730Y431800D03*
X261620Y431800D03*
X270510Y431800D03*
X270510Y440690D03*
D20*
X622300Y417830D02*
X623570Y416560D01*
D19*
X217170Y372110D03*
D21*
X175260Y330200D01*
X175260Y295910D01*
X622300Y417830D02*
X849630Y417830D01*
D19*
X910590Y417830D03*
D21*
X849630Y417830D01*
D19*
X849630Y417830D03*
D20*
X386080Y299720D02*
X276860Y190500D01*
D19*
X417830Y299720D03*
D20*
X386080Y299720D01*
D19*
X276860Y88900D03*
D20*
X276860Y173990D02*
X276860Y190500D01*
X276860Y173990D02*
X276860Y88900D01*
D19*
X238760Y173990D03*
D20*
X276860Y173990D01*
D19*
X549910Y234950D03*
D20*
X558800Y243840D02*
X558800Y363220D01*
X558800Y243840D02*
X549910Y234950D01*
X886460Y381000D02*
X899160Y393700D01*
D19*
X899160Y393700D03*
D20*
X576580Y381000D02*
X558800Y363220D01*
X576580Y381000D02*
X886460Y381000D01*
D19*
X76200Y118336D03*
D22*
X88900Y105636D02*
X88900Y105184D01*
X88900Y105636D02*
X76200Y118336D01*
D19*
X88900Y105184D03*
X76200Y135890D03*
X109220Y22860D03*
D20*
X77470Y135890D02*
X76200Y135890D01*
X77470Y135890D02*
X101600Y111760D01*
X101600Y30480D01*
X109220Y22860D01*
X38730Y205110D02*
X21500Y205110D01*
X38730Y205110D02*
X76200Y167640D01*
X76200Y135890D01*
D19*
X177800Y173990D03*
D20*
X179070Y173990D02*
X372110Y367030D01*
X179070Y173990D02*
X177800Y173990D01*
D19*
X372110Y367030D03*
X383540Y342900D03*
D20*
X382270Y342900D01*
X213360Y173990D01*
D19*
X213360Y173990D03*
X118350Y148830D03*
D23*
X157240Y148830D01*
X175260Y130810D01*
D19*
X175260Y130810D03*
X199390Y149860D03*
D23*
X204470Y144780D01*
X204470Y81280D01*
D19*
X204470Y81280D03*
D20*
X508000Y68580D02*
X543560Y68580D01*
X567690Y44450D01*
X632460Y44450D01*
X640080Y52070D01*
D19*
X640080Y52070D03*
D20*
X335280Y379730D02*
X251460Y295910D01*
X335280Y379730D02*
X464820Y379730D01*
X494030Y350520D01*
D19*
X494030Y350520D03*
D20*
X226060Y327660D02*
X226060Y295910D01*
X226060Y327660D02*
X290830Y392430D01*
D19*
X492760Y392430D03*
D20*
X290830Y392430D01*
D19*
X440690Y260350D03*
D20*
X440690Y186690D01*
X482600Y144780D01*
X543560Y256540D02*
X543560Y290830D01*
X543560Y256540D02*
X482600Y195580D01*
D19*
X543560Y290830D03*
D20*
X462280Y190500D02*
X482600Y170180D01*
X462280Y190500D02*
X462280Y248920D01*
X527050Y313690D02*
X543560Y313690D01*
X527050Y313690D02*
X462280Y248920D01*
D19*
X543560Y313690D03*
X495300Y325120D03*
D20*
X477520Y325120D01*
X421640Y269240D01*
X421640Y168910D01*
X471170Y119380D02*
X482600Y119380D01*
X471170Y119380D02*
X421640Y168910D01*
D19*
X398780Y285750D03*
D20*
X398780Y118110D01*
X448310Y68580D01*
X482600Y68580D01*
M02*
