G04 EAGLE Gerber RS-274X export*
G75*
%MOMM*%
%FSLAX34Y34*%
%LPD*%
%IN*%
%IPPOS*%
%AMOC8*
5,1,8,0,0,1.08239X$1,22.5*%
G01*
%ADD10C,0.254000*%


D10*
X0Y0D02*
X1000760Y0D01*
X1000760Y500380D01*
X598170Y500380D01*
X532130Y434340D01*
X341630Y434340D01*
X275590Y500380D01*
X0Y500380D01*
X0Y0D01*
X28500Y367000D02*
X38500Y367000D01*
X38500Y395000D01*
X28500Y395000D01*
X28500Y367000D01*
X89500Y364500D02*
X99500Y364500D01*
X99500Y397500D01*
X89500Y397500D01*
X89500Y364500D01*
X49500Y328000D02*
X77500Y328000D01*
X77500Y338000D01*
X49500Y338000D01*
X49500Y328000D01*
X55600Y37527D02*
X55525Y36384D01*
X55376Y35248D01*
X55152Y34124D01*
X54855Y33017D01*
X54487Y31932D01*
X54049Y30874D01*
X53542Y29846D01*
X52969Y28854D01*
X52332Y27901D01*
X51635Y26992D01*
X50879Y26131D01*
X50069Y25321D01*
X49208Y24565D01*
X48299Y23868D01*
X47346Y23231D01*
X46354Y22658D01*
X45326Y22151D01*
X44268Y21713D01*
X43183Y21345D01*
X42076Y21048D01*
X40952Y20825D01*
X39816Y20675D01*
X38673Y20600D01*
X37527Y20600D01*
X36384Y20675D01*
X35248Y20825D01*
X34124Y21048D01*
X33017Y21345D01*
X31932Y21713D01*
X30874Y22151D01*
X29846Y22658D01*
X28854Y23231D01*
X27901Y23868D01*
X26992Y24565D01*
X26131Y25321D01*
X25321Y26131D01*
X24565Y26992D01*
X23868Y27901D01*
X23231Y28854D01*
X22658Y29846D01*
X22151Y30874D01*
X21713Y31932D01*
X21345Y33017D01*
X21048Y34124D01*
X20825Y35248D01*
X20675Y36384D01*
X20600Y37527D01*
X20600Y38673D01*
X20675Y39816D01*
X20825Y40952D01*
X21048Y42076D01*
X21345Y43183D01*
X21713Y44268D01*
X22151Y45326D01*
X22658Y46354D01*
X23231Y47346D01*
X23868Y48299D01*
X24565Y49208D01*
X25321Y50069D01*
X26131Y50879D01*
X26992Y51635D01*
X27901Y52332D01*
X28854Y52969D01*
X29846Y53542D01*
X30874Y54049D01*
X31932Y54487D01*
X33017Y54855D01*
X34124Y55152D01*
X35248Y55376D01*
X36384Y55525D01*
X37527Y55600D01*
X38673Y55600D01*
X39816Y55525D01*
X40952Y55376D01*
X42076Y55152D01*
X43183Y54855D01*
X44268Y54487D01*
X45326Y54049D01*
X46354Y53542D01*
X47346Y52969D01*
X48299Y52332D01*
X49208Y51635D01*
X50069Y50879D01*
X50879Y50069D01*
X51635Y49208D01*
X52332Y48299D01*
X52969Y47346D01*
X53542Y46354D01*
X54049Y45326D01*
X54487Y44268D01*
X54855Y43183D01*
X55152Y42076D01*
X55376Y40952D01*
X55525Y39816D01*
X55600Y38673D01*
X55600Y37527D01*
X55600Y461707D02*
X55525Y460564D01*
X55376Y459428D01*
X55152Y458304D01*
X54855Y457197D01*
X54487Y456112D01*
X54049Y455054D01*
X53542Y454026D01*
X52969Y453034D01*
X52332Y452081D01*
X51635Y451172D01*
X50879Y450311D01*
X50069Y449501D01*
X49208Y448745D01*
X48299Y448048D01*
X47346Y447411D01*
X46354Y446838D01*
X45326Y446331D01*
X44268Y445893D01*
X43183Y445525D01*
X42076Y445228D01*
X40952Y445005D01*
X39816Y444855D01*
X38673Y444780D01*
X37527Y444780D01*
X36384Y444855D01*
X35248Y445005D01*
X34124Y445228D01*
X33017Y445525D01*
X31932Y445893D01*
X30874Y446331D01*
X29846Y446838D01*
X28854Y447411D01*
X27901Y448048D01*
X26992Y448745D01*
X26131Y449501D01*
X25321Y450311D01*
X24565Y451172D01*
X23868Y452081D01*
X23231Y453034D01*
X22658Y454026D01*
X22151Y455054D01*
X21713Y456112D01*
X21345Y457197D01*
X21048Y458304D01*
X20825Y459428D01*
X20675Y460564D01*
X20600Y461707D01*
X20600Y462853D01*
X20675Y463996D01*
X20825Y465132D01*
X21048Y466256D01*
X21345Y467363D01*
X21713Y468448D01*
X22151Y469506D01*
X22658Y470534D01*
X23231Y471526D01*
X23868Y472479D01*
X24565Y473388D01*
X25321Y474249D01*
X26131Y475059D01*
X26992Y475815D01*
X27901Y476512D01*
X28854Y477149D01*
X29846Y477722D01*
X30874Y478229D01*
X31932Y478667D01*
X33017Y479035D01*
X34124Y479332D01*
X35248Y479556D01*
X36384Y479705D01*
X37527Y479780D01*
X38673Y479780D01*
X39816Y479705D01*
X40952Y479556D01*
X42076Y479332D01*
X43183Y479035D01*
X44268Y478667D01*
X45326Y478229D01*
X46354Y477722D01*
X47346Y477149D01*
X48299Y476512D01*
X49208Y475815D01*
X50069Y475059D01*
X50879Y474249D01*
X51635Y473388D01*
X52332Y472479D01*
X52969Y471526D01*
X53542Y470534D01*
X54049Y469506D01*
X54487Y468448D01*
X54855Y467363D01*
X55152Y466256D01*
X55376Y465132D01*
X55525Y463996D01*
X55600Y462853D01*
X55600Y461707D01*
X980160Y461707D02*
X980085Y460564D01*
X979936Y459428D01*
X979712Y458304D01*
X979415Y457197D01*
X979047Y456112D01*
X978609Y455054D01*
X978102Y454026D01*
X977529Y453034D01*
X976892Y452081D01*
X976195Y451172D01*
X975439Y450311D01*
X974629Y449501D01*
X973768Y448745D01*
X972859Y448048D01*
X971906Y447411D01*
X970914Y446838D01*
X969886Y446331D01*
X968828Y445893D01*
X967743Y445525D01*
X966636Y445228D01*
X965512Y445005D01*
X964376Y444855D01*
X963233Y444780D01*
X962087Y444780D01*
X960944Y444855D01*
X959808Y445005D01*
X958684Y445228D01*
X957577Y445525D01*
X956492Y445893D01*
X955434Y446331D01*
X954406Y446838D01*
X953414Y447411D01*
X952461Y448048D01*
X951552Y448745D01*
X950691Y449501D01*
X949881Y450311D01*
X949125Y451172D01*
X948428Y452081D01*
X947791Y453034D01*
X947218Y454026D01*
X946711Y455054D01*
X946273Y456112D01*
X945905Y457197D01*
X945608Y458304D01*
X945385Y459428D01*
X945235Y460564D01*
X945160Y461707D01*
X945160Y462853D01*
X945235Y463996D01*
X945385Y465132D01*
X945608Y466256D01*
X945905Y467363D01*
X946273Y468448D01*
X946711Y469506D01*
X947218Y470534D01*
X947791Y471526D01*
X948428Y472479D01*
X949125Y473388D01*
X949881Y474249D01*
X950691Y475059D01*
X951552Y475815D01*
X952461Y476512D01*
X953414Y477149D01*
X954406Y477722D01*
X955434Y478229D01*
X956492Y478667D01*
X957577Y479035D01*
X958684Y479332D01*
X959808Y479556D01*
X960944Y479705D01*
X962087Y479780D01*
X963233Y479780D01*
X964376Y479705D01*
X965512Y479556D01*
X966636Y479332D01*
X967743Y479035D01*
X968828Y478667D01*
X969886Y478229D01*
X970914Y477722D01*
X971906Y477149D01*
X972859Y476512D01*
X973768Y475815D01*
X974629Y475059D01*
X975439Y474249D01*
X976195Y473388D01*
X976892Y472479D01*
X977529Y471526D01*
X978102Y470534D01*
X978609Y469506D01*
X979047Y468448D01*
X979415Y467363D01*
X979712Y466256D01*
X979936Y465132D01*
X980085Y463996D01*
X980160Y462853D01*
X980160Y461707D01*
X980160Y37527D02*
X980085Y36384D01*
X979936Y35248D01*
X979712Y34124D01*
X979415Y33017D01*
X979047Y31932D01*
X978609Y30874D01*
X978102Y29846D01*
X977529Y28854D01*
X976892Y27901D01*
X976195Y26992D01*
X975439Y26131D01*
X974629Y25321D01*
X973768Y24565D01*
X972859Y23868D01*
X971906Y23231D01*
X970914Y22658D01*
X969886Y22151D01*
X968828Y21713D01*
X967743Y21345D01*
X966636Y21048D01*
X965512Y20825D01*
X964376Y20675D01*
X963233Y20600D01*
X962087Y20600D01*
X960944Y20675D01*
X959808Y20825D01*
X958684Y21048D01*
X957577Y21345D01*
X956492Y21713D01*
X955434Y22151D01*
X954406Y22658D01*
X953414Y23231D01*
X952461Y23868D01*
X951552Y24565D01*
X950691Y25321D01*
X949881Y26131D01*
X949125Y26992D01*
X948428Y27901D01*
X947791Y28854D01*
X947218Y29846D01*
X946711Y30874D01*
X946273Y31932D01*
X945905Y33017D01*
X945608Y34124D01*
X945385Y35248D01*
X945235Y36384D01*
X945160Y37527D01*
X945160Y38673D01*
X945235Y39816D01*
X945385Y40952D01*
X945608Y42076D01*
X945905Y43183D01*
X946273Y44268D01*
X946711Y45326D01*
X947218Y46354D01*
X947791Y47346D01*
X948428Y48299D01*
X949125Y49208D01*
X949881Y50069D01*
X950691Y50879D01*
X951552Y51635D01*
X952461Y52332D01*
X953414Y52969D01*
X954406Y53542D01*
X955434Y54049D01*
X956492Y54487D01*
X957577Y54855D01*
X958684Y55152D01*
X959808Y55376D01*
X960944Y55525D01*
X962087Y55600D01*
X963233Y55600D01*
X964376Y55525D01*
X965512Y55376D01*
X966636Y55152D01*
X967743Y54855D01*
X968828Y54487D01*
X969886Y54049D01*
X970914Y53542D01*
X971906Y52969D01*
X972859Y52332D01*
X973768Y51635D01*
X974629Y50879D01*
X975439Y50069D01*
X976195Y49208D01*
X976892Y48299D01*
X977529Y47346D01*
X978102Y46354D01*
X978609Y45326D01*
X979047Y44268D01*
X979415Y43183D01*
X979712Y42076D01*
X979936Y40952D01*
X980085Y39816D01*
X980160Y38673D01*
X980160Y37527D01*
M02*
