G04 EAGLE Gerber RS-274X export*
G75*
%MOMM*%
%FSLAX34Y34*%
%LPD*%
%INSoldermask Bottom*%
%IPPOS*%
%AMOC8*
5,1,8,0,0,1.08239X$1,22.5*%
G01*
%ADD10C,3.703200*%
%ADD11C,2.003200*%
%ADD12C,2.203200*%
%ADD13R,1.727200X1.727200*%
%ADD14C,1.727200*%
%ADD15R,2.403200X5.203200*%
%ADD16P,1.869504X8X292.500000*%
%ADD17C,1.511200*%
%ADD18C,2.453200*%
%ADD19C,1.703200*%
%ADD20C,0.959600*%


D10*
X38100Y38100D03*
X38100Y462280D03*
X962660Y462280D03*
X962660Y38100D03*
D11*
X14500Y144760D03*
X14500Y78760D03*
D12*
X94500Y371000D02*
X94500Y391000D01*
X33500Y391000D02*
X33500Y371000D01*
X53500Y333000D02*
X73500Y333000D01*
D13*
X175260Y295910D03*
D14*
X200660Y295910D03*
X226060Y295910D03*
X251460Y295910D03*
D15*
X901146Y25654D03*
X838754Y25654D03*
D16*
X482600Y195580D03*
X508000Y195580D03*
X482600Y170180D03*
X508000Y170180D03*
X482600Y144780D03*
X508000Y144780D03*
X482600Y119380D03*
X508000Y119380D03*
X482600Y93980D03*
X508000Y93980D03*
X482600Y68580D03*
X508000Y68580D03*
X482600Y43180D03*
X508000Y43180D03*
D17*
X21500Y245110D03*
X21500Y285110D03*
X21500Y225110D03*
D18*
X21500Y308110D03*
X21500Y182110D03*
D17*
X21500Y205110D03*
D11*
X407670Y351790D03*
X435610Y351790D03*
X421640Y336820D03*
X407670Y322580D03*
X435610Y322580D03*
D19*
X124460Y120650D03*
X142240Y120650D03*
X142240Y102870D03*
X124460Y102870D03*
D20*
X768350Y339090D03*
X742950Y339090D03*
X784860Y318770D03*
X768350Y297180D03*
X742950Y297180D03*
X844550Y339090D03*
X869950Y339090D03*
X895350Y339090D03*
X826770Y318770D03*
X911860Y318770D03*
X895350Y297180D03*
X869950Y297180D03*
X844550Y297180D03*
X580390Y392430D03*
X580390Y369570D03*
X580390Y346710D03*
X572770Y318770D03*
X590550Y297180D03*
X572770Y78740D03*
X590550Y57150D03*
X144780Y379730D03*
X130810Y359410D03*
X119380Y379730D03*
X149860Y336550D03*
X195580Y372110D03*
X261620Y342900D03*
X80010Y22860D03*
X143510Y38100D03*
X143510Y62230D03*
X129540Y22860D03*
X26670Y99060D03*
X59690Y99060D03*
X101600Y193040D03*
X819150Y15240D03*
X819150Y25400D03*
X819150Y35560D03*
X819150Y45720D03*
X819150Y55880D03*
X819150Y66040D03*
X819150Y76200D03*
X819150Y86360D03*
X822960Y95250D03*
X829310Y104140D03*
X839470Y104140D03*
X849630Y104140D03*
X859790Y104140D03*
X869950Y104140D03*
X880110Y104140D03*
X890270Y104140D03*
X900430Y104140D03*
X910590Y104140D03*
X916940Y95250D03*
X920750Y86360D03*
X920750Y76200D03*
X920750Y66040D03*
X920750Y55880D03*
X920750Y45720D03*
X920750Y35560D03*
X920750Y25400D03*
X920750Y15240D03*
X802640Y20320D03*
X801370Y40640D03*
X801370Y62230D03*
X801370Y78740D03*
X803910Y95250D03*
X938530Y60960D03*
X810260Y109220D03*
X824230Y120650D03*
X844550Y120650D03*
X862330Y120650D03*
X916940Y120650D03*
X896620Y120650D03*
X878840Y120650D03*
X938530Y78740D03*
X935990Y95250D03*
X928370Y109220D03*
X120650Y212090D03*
X82550Y212090D03*
X240030Y361950D03*
X825500Y190500D03*
X876300Y190500D03*
X825500Y139700D03*
X876300Y139700D03*
X927100Y139700D03*
X927100Y190500D03*
X977900Y228600D03*
X977900Y177800D03*
X977900Y127000D03*
X977900Y76200D03*
X977900Y254000D03*
X977900Y279400D03*
X977900Y304800D03*
X927100Y241300D03*
X876300Y241300D03*
X825500Y241300D03*
X774700Y241300D03*
X723900Y241300D03*
X673100Y241300D03*
X622300Y241300D03*
X571500Y241300D03*
X927100Y292100D03*
X774700Y190500D03*
X723900Y190500D03*
X774700Y139700D03*
X800100Y215900D03*
X749300Y215900D03*
X850900Y215900D03*
X901700Y215900D03*
X901700Y266700D03*
X850900Y266700D03*
X952500Y266700D03*
X952500Y215900D03*
X952500Y165100D03*
X901700Y165100D03*
X850900Y165100D03*
X800100Y165100D03*
X749300Y165100D03*
X698500Y215900D03*
X647700Y215900D03*
X596900Y215900D03*
X723900Y292100D03*
X673100Y292100D03*
X622300Y292100D03*
X800100Y266700D03*
X952500Y317500D03*
X952500Y114300D03*
X762000Y25400D03*
X711200Y25400D03*
X660400Y25400D03*
X685800Y25400D03*
X736600Y25400D03*
X977900Y101600D03*
X977900Y152400D03*
X977900Y203200D03*
X977900Y330200D03*
X977900Y355600D03*
X977900Y381000D03*
X977900Y406400D03*
X635000Y25400D03*
X609600Y25400D03*
X584200Y25400D03*
X558800Y25400D03*
X533400Y25400D03*
X508000Y25400D03*
X482600Y25400D03*
X457200Y25400D03*
X431800Y25400D03*
X251460Y25400D03*
X165100Y25400D03*
X101600Y165100D03*
X101600Y279400D03*
X109220Y336550D03*
X701040Y355600D03*
X708660Y341630D03*
X701040Y396240D03*
X740410Y393700D03*
X786130Y25400D03*
X129540Y314960D03*
X542290Y394970D03*
X458470Y337820D03*
X283210Y361950D03*
X749300Y266700D03*
X698500Y266700D03*
X647700Y266700D03*
X596900Y266700D03*
X800100Y304800D03*
X825500Y292100D03*
X406400Y25400D03*
X381000Y25400D03*
X355600Y25400D03*
X330200Y25400D03*
X304800Y25400D03*
X279400Y25400D03*
X800100Y342900D03*
X927100Y342900D03*
X317500Y139700D03*
X317500Y177800D03*
X368300Y139700D03*
X368300Y165100D03*
X304800Y76200D03*
X342900Y76200D03*
X381000Y88900D03*
X241300Y139700D03*
X152400Y254000D03*
X152400Y215900D03*
X495300Y304800D03*
X457200Y279400D03*
X774700Y50800D03*
X749300Y50800D03*
X723900Y50800D03*
X698500Y50800D03*
X673100Y50800D03*
D11*
X139160Y428990D03*
X170720Y428990D03*
X139160Y463550D03*
X170720Y463550D03*
D20*
X613410Y417830D03*
X613410Y408940D03*
X604520Y417830D03*
X604520Y408940D03*
D11*
X154940Y445770D03*
D19*
X76200Y481330D03*
X76200Y458470D03*
X76200Y435610D03*
X233680Y481330D03*
X233680Y458470D03*
X233680Y435610D03*
X233680Y412750D03*
X101600Y481330D03*
X208280Y481330D03*
X208280Y412750D03*
X101600Y458470D03*
X101600Y435610D03*
X208280Y435610D03*
X208280Y458470D03*
D20*
X622300Y417830D03*
X622300Y408940D03*
X252730Y440690D03*
X261620Y440690D03*
X252730Y431800D03*
X261620Y431800D03*
X270510Y431800D03*
X270510Y440690D03*
X217170Y372110D03*
X910590Y417830D03*
X849630Y417830D03*
X417830Y299720D03*
X276860Y88900D03*
X238760Y173990D03*
X549910Y234950D03*
X899160Y393700D03*
X76200Y118336D03*
X88900Y105184D03*
X76200Y135890D03*
X109220Y22860D03*
X177800Y173990D03*
X372110Y367030D03*
X383540Y342900D03*
X213360Y173990D03*
X118350Y148830D03*
X175260Y130810D03*
X199390Y149860D03*
X204470Y81280D03*
X640080Y52070D03*
X494030Y350520D03*
X492760Y392430D03*
X440690Y260350D03*
X543560Y290830D03*
X543560Y313690D03*
X495300Y325120D03*
X398780Y285750D03*
M02*
