G04 EAGLE Gerber RS-274X export*
G75*
%MOMM*%
%FSLAX34Y34*%
%LPD*%
%INSoldermask Top*%
%IPPOS*%
%AMOC8*
5,1,8,0,0,1.08239X$1,22.5*%
G01*
%ADD10C,3.703200*%
%ADD11R,1.703200X1.503200*%
%ADD12R,2.603200X2.603200*%
%ADD13R,1.503200X1.703200*%
%ADD14R,1.768500X2.459000*%
%ADD15R,1.953200X0.603200*%
%ADD16R,1.803200X2.003200*%
%ADD17C,2.003200*%
%ADD18C,2.203200*%
%ADD19R,1.727200X1.727200*%
%ADD20C,1.727200*%
%ADD21R,1.403200X1.403200*%
%ADD22R,1.525600X0.812400*%
%ADD23R,2.203200X1.103200*%
%ADD24R,1.103200X2.203200*%
%ADD25R,5.203200X5.203200*%
%ADD26R,1.903200X2.703200*%
%ADD27C,0.473200*%
%ADD28R,3.203200X3.203200*%
%ADD29R,1.186200X2.605600*%
%ADD30R,5.692300X6.066500*%
%ADD31R,2.403200X5.203200*%
%ADD32R,1.203200X1.653200*%
%ADD33R,0.853200X1.603200*%
%ADD34P,1.869504X8X292.500000*%
%ADD35C,1.511200*%
%ADD36C,2.453200*%
%ADD37C,1.703200*%
%ADD38C,0.959600*%


D10*
X38100Y38100D03*
X38100Y462280D03*
X962660Y462280D03*
X962660Y38100D03*
D11*
X293370Y393090D03*
X293370Y412090D03*
D12*
X179940Y336550D03*
X129940Y336550D03*
D11*
X318770Y393090D03*
X318770Y412090D03*
X80010Y57760D03*
X80010Y38760D03*
D13*
X109880Y62230D03*
X128880Y62230D03*
X109880Y38100D03*
X128880Y38100D03*
X614020Y392430D03*
X595020Y392430D03*
X614020Y369570D03*
X595020Y369570D03*
X614020Y346710D03*
X595020Y346710D03*
D12*
X261620Y412350D03*
X261620Y362350D03*
D14*
X101600Y245369D03*
X101600Y211831D03*
D15*
X43500Y124760D03*
X43500Y118260D03*
X43500Y111760D03*
X43500Y105260D03*
X43500Y98760D03*
D16*
X40500Y144760D03*
X40500Y78760D03*
D17*
X14500Y144760D03*
X14500Y78760D03*
D18*
X94500Y371000D02*
X94500Y391000D01*
X33500Y391000D02*
X33500Y371000D01*
X53500Y333000D02*
X73500Y333000D01*
D19*
X175260Y295910D03*
D20*
X200660Y295910D03*
X226060Y295910D03*
X251460Y295910D03*
D21*
X932180Y395900D03*
X932180Y416900D03*
X878840Y395900D03*
X878840Y416900D03*
X825500Y395900D03*
X825500Y416900D03*
D22*
X245125Y114910D03*
X245125Y95910D03*
X265415Y105410D03*
X245125Y64110D03*
X245125Y45110D03*
X265415Y54610D03*
X716295Y372720D03*
X716295Y353720D03*
X736585Y363220D03*
X716295Y414630D03*
X716295Y395630D03*
X736585Y405130D03*
D11*
X226060Y187350D03*
X226060Y206350D03*
D13*
X766470Y405130D03*
X785470Y405130D03*
X685140Y414020D03*
X666140Y414020D03*
X685140Y372110D03*
X666140Y372110D03*
X766470Y363220D03*
X785470Y363220D03*
D11*
X226060Y257150D03*
X226060Y238150D03*
X251460Y257150D03*
X251460Y238150D03*
D13*
X340970Y54610D03*
X321970Y54610D03*
D11*
X251460Y206350D03*
X251460Y187350D03*
D13*
X321970Y105410D03*
X340970Y105410D03*
X951840Y363220D03*
X932840Y363220D03*
X898500Y363220D03*
X879500Y363220D03*
D11*
X200660Y206350D03*
X200660Y187350D03*
D13*
X203860Y105410D03*
X222860Y105410D03*
X203860Y54610D03*
X222860Y54610D03*
D23*
X351880Y414550D03*
X351880Y401850D03*
X351880Y389150D03*
X351880Y376450D03*
X351880Y363750D03*
X351880Y351050D03*
X351880Y338350D03*
X351880Y325650D03*
X351880Y312950D03*
X351880Y300250D03*
X351880Y287550D03*
X351880Y274850D03*
X351880Y262150D03*
X351880Y249450D03*
D24*
X379730Y239450D03*
X392430Y239450D03*
X405130Y239450D03*
X417830Y239450D03*
X430530Y239450D03*
X443230Y239450D03*
X455930Y239450D03*
X468630Y239450D03*
X481330Y239450D03*
X494030Y239450D03*
D23*
X521880Y249450D03*
X521880Y262150D03*
X521880Y274850D03*
X521880Y287550D03*
X521880Y300250D03*
X521880Y312950D03*
X521880Y325650D03*
X521880Y338350D03*
X521880Y351050D03*
X521880Y363750D03*
X521880Y376450D03*
X521880Y389150D03*
X521880Y401850D03*
X521880Y414550D03*
D25*
X421880Y336950D03*
D26*
X894820Y318120D03*
X869420Y318120D03*
X844020Y318120D03*
X768020Y318120D03*
X742620Y318120D03*
X717220Y318120D03*
X691820Y318120D03*
X666420Y318120D03*
X641020Y318120D03*
X615620Y318120D03*
X590220Y318120D03*
X590220Y78120D03*
X615620Y78120D03*
X641020Y78120D03*
X666420Y78120D03*
X691820Y78120D03*
X717220Y78120D03*
X742620Y78120D03*
X768020Y78120D03*
X844020Y78120D03*
X869420Y78120D03*
X894820Y78120D03*
D27*
X112633Y126760D02*
X106141Y126760D01*
X106141Y121760D02*
X112633Y121760D01*
X112633Y116760D02*
X106141Y116760D01*
X106141Y111760D02*
X112633Y111760D01*
X112633Y106760D02*
X106141Y106760D01*
X106141Y101760D02*
X112633Y101760D01*
X112633Y96760D02*
X106141Y96760D01*
X118350Y91043D02*
X118350Y84551D01*
X123350Y84551D02*
X123350Y91043D01*
X128350Y91043D02*
X128350Y84551D01*
X133350Y84551D02*
X133350Y91043D01*
X138350Y91043D02*
X138350Y84551D01*
X143350Y84551D02*
X143350Y91043D01*
X148350Y91043D02*
X148350Y84551D01*
X154067Y96760D02*
X160559Y96760D01*
X160559Y101760D02*
X154067Y101760D01*
X154067Y106760D02*
X160559Y106760D01*
X160559Y111760D02*
X154067Y111760D01*
X154067Y116760D02*
X160559Y116760D01*
X160559Y121760D02*
X154067Y121760D01*
X154067Y126760D02*
X160559Y126760D01*
X148350Y132477D02*
X148350Y138969D01*
X143350Y138969D02*
X143350Y132477D01*
X138350Y132477D02*
X138350Y138969D01*
X133350Y138969D02*
X133350Y132477D01*
X128350Y132477D02*
X128350Y138969D01*
X123350Y138969D02*
X123350Y132477D01*
X118350Y132477D02*
X118350Y138969D01*
D28*
X133350Y111760D03*
D29*
X132140Y379610D03*
X177740Y379610D03*
D30*
X154940Y446365D03*
D31*
X869950Y25000D03*
X838754Y25654D03*
X901146Y25654D03*
D32*
X404250Y93310D03*
X421250Y93310D03*
X404250Y41310D03*
X421250Y41310D03*
D33*
X392750Y67310D03*
D32*
X404250Y172050D03*
X421250Y172050D03*
X404250Y120050D03*
X421250Y120050D03*
D33*
X392750Y146050D03*
D34*
X482600Y195580D03*
X508000Y195580D03*
X482600Y170180D03*
X508000Y170180D03*
X482600Y144780D03*
X508000Y144780D03*
X482600Y119380D03*
X508000Y119380D03*
X482600Y93980D03*
X508000Y93980D03*
X482600Y68580D03*
X508000Y68580D03*
X482600Y43180D03*
X508000Y43180D03*
D35*
X21500Y245110D03*
X21500Y285110D03*
X21500Y225110D03*
D36*
X21500Y308110D03*
X21500Y182110D03*
D35*
X21500Y205110D03*
D17*
X407670Y351790D03*
X435610Y351790D03*
X421640Y336820D03*
X407670Y322580D03*
X435610Y322580D03*
D37*
X124460Y120650D03*
X142240Y120650D03*
X142240Y102870D03*
X124460Y102870D03*
D38*
X768350Y339090D03*
X742950Y339090D03*
X784860Y318770D03*
X768350Y297180D03*
X742950Y297180D03*
X844550Y339090D03*
X869950Y339090D03*
X895350Y339090D03*
X826770Y318770D03*
X911860Y318770D03*
X895350Y297180D03*
X869950Y297180D03*
X844550Y297180D03*
X580390Y392430D03*
X580390Y369570D03*
X580390Y346710D03*
X572770Y318770D03*
X590550Y297180D03*
X572770Y78740D03*
X590550Y57150D03*
X144780Y379730D03*
X130810Y359410D03*
X119380Y379730D03*
X149860Y336550D03*
X195580Y372110D03*
X261620Y342900D03*
X80010Y22860D03*
X143510Y38100D03*
X143510Y62230D03*
X129540Y22860D03*
X26670Y99060D03*
X59690Y99060D03*
X101600Y193040D03*
X819150Y15240D03*
X819150Y25400D03*
X819150Y35560D03*
X819150Y45720D03*
X819150Y55880D03*
X819150Y66040D03*
X819150Y76200D03*
X819150Y86360D03*
X822960Y95250D03*
X829310Y104140D03*
X839470Y104140D03*
X849630Y104140D03*
X859790Y104140D03*
X869950Y104140D03*
X880110Y104140D03*
X890270Y104140D03*
X900430Y104140D03*
X910590Y104140D03*
X916940Y95250D03*
X920750Y86360D03*
X920750Y76200D03*
X920750Y66040D03*
X920750Y55880D03*
X920750Y45720D03*
X920750Y35560D03*
X920750Y25400D03*
X920750Y15240D03*
X802640Y20320D03*
X801370Y40640D03*
X801370Y62230D03*
X801370Y78740D03*
X803910Y95250D03*
X938530Y60960D03*
X810260Y109220D03*
X824230Y120650D03*
X844550Y120650D03*
X862330Y120650D03*
X916940Y120650D03*
X896620Y120650D03*
X878840Y120650D03*
X938530Y78740D03*
X935990Y95250D03*
X928370Y109220D03*
X120650Y212090D03*
X82550Y212090D03*
X240030Y361950D03*
X825500Y190500D03*
X876300Y190500D03*
X825500Y139700D03*
X876300Y139700D03*
X927100Y139700D03*
X927100Y190500D03*
X977900Y228600D03*
X977900Y177800D03*
X977900Y127000D03*
X977900Y76200D03*
X977900Y254000D03*
X977900Y279400D03*
X977900Y304800D03*
X927100Y241300D03*
X876300Y241300D03*
X825500Y241300D03*
X774700Y241300D03*
X723900Y241300D03*
X673100Y241300D03*
X622300Y241300D03*
X571500Y241300D03*
X927100Y292100D03*
X774700Y190500D03*
X723900Y190500D03*
X774700Y139700D03*
X800100Y215900D03*
X749300Y215900D03*
X850900Y215900D03*
X901700Y215900D03*
X901700Y266700D03*
X850900Y266700D03*
X952500Y266700D03*
X952500Y215900D03*
X952500Y165100D03*
X901700Y165100D03*
X850900Y165100D03*
X800100Y165100D03*
X749300Y165100D03*
X698500Y215900D03*
X647700Y215900D03*
X596900Y215900D03*
X723900Y292100D03*
X673100Y292100D03*
X622300Y292100D03*
X800100Y266700D03*
X952500Y317500D03*
X952500Y114300D03*
X762000Y25400D03*
X711200Y25400D03*
X660400Y25400D03*
X685800Y25400D03*
X736600Y25400D03*
X977900Y101600D03*
X977900Y152400D03*
X977900Y203200D03*
X977900Y330200D03*
X977900Y355600D03*
X977900Y381000D03*
X977900Y406400D03*
X635000Y25400D03*
X609600Y25400D03*
X584200Y25400D03*
X558800Y25400D03*
X533400Y25400D03*
X508000Y25400D03*
X482600Y25400D03*
X457200Y25400D03*
X431800Y25400D03*
X251460Y25400D03*
X165100Y25400D03*
X101600Y165100D03*
X101600Y279400D03*
X109220Y336550D03*
X701040Y355600D03*
X708660Y341630D03*
X701040Y396240D03*
X740410Y393700D03*
X786130Y25400D03*
X129540Y314960D03*
X542290Y394970D03*
X458470Y337820D03*
X283210Y361950D03*
X749300Y266700D03*
X698500Y266700D03*
X647700Y266700D03*
X596900Y266700D03*
X800100Y304800D03*
X825500Y292100D03*
X406400Y25400D03*
X381000Y25400D03*
X355600Y25400D03*
X330200Y25400D03*
X304800Y25400D03*
X279400Y25400D03*
X800100Y342900D03*
X927100Y342900D03*
X317500Y139700D03*
X317500Y177800D03*
X368300Y139700D03*
X368300Y165100D03*
X304800Y76200D03*
X342900Y76200D03*
X381000Y88900D03*
X241300Y139700D03*
X152400Y254000D03*
X152400Y215900D03*
X495300Y304800D03*
X457200Y279400D03*
X774700Y50800D03*
X749300Y50800D03*
X723900Y50800D03*
X698500Y50800D03*
X673100Y50800D03*
D17*
X139160Y428990D03*
X170720Y428990D03*
X139160Y463550D03*
X170720Y463550D03*
D38*
X613410Y417830D03*
X613410Y408940D03*
X604520Y417830D03*
X604520Y408940D03*
D17*
X154940Y445770D03*
D37*
X76200Y481330D03*
X76200Y458470D03*
X76200Y435610D03*
X233680Y481330D03*
X233680Y458470D03*
X233680Y435610D03*
X233680Y412750D03*
X101600Y481330D03*
X208280Y481330D03*
X208280Y412750D03*
X101600Y458470D03*
X101600Y435610D03*
X208280Y435610D03*
X208280Y458470D03*
D38*
X622300Y417830D03*
X622300Y408940D03*
X252730Y440690D03*
X261620Y440690D03*
X252730Y431800D03*
X261620Y431800D03*
X270510Y431800D03*
X270510Y440690D03*
X217170Y372110D03*
X910590Y417830D03*
X849630Y417830D03*
X417830Y299720D03*
X276860Y88900D03*
X238760Y173990D03*
X549910Y234950D03*
X899160Y393700D03*
X76200Y118336D03*
X88900Y105184D03*
X76200Y135890D03*
X109220Y22860D03*
X177800Y173990D03*
X372110Y367030D03*
X383540Y342900D03*
X213360Y173990D03*
X118350Y148830D03*
X175260Y130810D03*
X199390Y149860D03*
X204470Y81280D03*
X640080Y52070D03*
X494030Y350520D03*
X492760Y392430D03*
X440690Y260350D03*
X543560Y290830D03*
X543560Y313690D03*
X495300Y325120D03*
X398780Y285750D03*
M02*
