G04 EAGLE Gerber RS-274X export*
G75*
%MOMM*%
%FSLAX34Y34*%
%LPD*%
%INSolderpaste Top*%
%IPPOS*%
%AMOC8*
5,1,8,0,0,1.08239X$1,22.5*%
G01*
%ADD10R,1.500000X1.300000*%
%ADD11R,2.400000X2.400000*%
%ADD12R,1.300000X1.500000*%
%ADD13R,1.565300X2.255800*%
%ADD14R,1.750000X0.400000*%
%ADD15R,1.600000X1.800000*%
%ADD16R,1.200000X1.200000*%
%ADD17R,1.322400X0.609200*%
%ADD18R,2.000000X0.900000*%
%ADD19R,0.900000X2.000000*%
%ADD20R,5.000000X5.000000*%
%ADD21R,1.700000X2.500000*%
%ADD22C,0.270000*%
%ADD23R,3.000000X3.000000*%
%ADD24R,0.983000X2.402400*%
%ADD25R,5.489100X5.863300*%
%ADD26R,2.200000X5.000000*%
%ADD27R,1.000000X1.450000*%
%ADD28R,0.650000X1.400000*%


D10*
X293370Y393090D03*
X293370Y412090D03*
D11*
X179940Y336550D03*
X129940Y336550D03*
D10*
X318770Y393090D03*
X318770Y412090D03*
X80010Y57760D03*
X80010Y38760D03*
D12*
X109880Y62230D03*
X128880Y62230D03*
X109880Y38100D03*
X128880Y38100D03*
X614020Y392430D03*
X595020Y392430D03*
X614020Y369570D03*
X595020Y369570D03*
X614020Y346710D03*
X595020Y346710D03*
D11*
X261620Y412350D03*
X261620Y362350D03*
D13*
X101600Y245369D03*
X101600Y211831D03*
D14*
X43500Y124760D03*
X43500Y118260D03*
X43500Y111760D03*
X43500Y105260D03*
X43500Y98760D03*
D15*
X40500Y144760D03*
X40500Y78760D03*
D16*
X932180Y395900D03*
X932180Y416900D03*
X878840Y395900D03*
X878840Y416900D03*
X825500Y395900D03*
X825500Y416900D03*
D17*
X245125Y114910D03*
X245125Y95910D03*
X265415Y105410D03*
X245125Y64110D03*
X245125Y45110D03*
X265415Y54610D03*
X716295Y372720D03*
X716295Y353720D03*
X736585Y363220D03*
X716295Y414630D03*
X716295Y395630D03*
X736585Y405130D03*
D10*
X226060Y187350D03*
X226060Y206350D03*
D12*
X766470Y405130D03*
X785470Y405130D03*
X685140Y414020D03*
X666140Y414020D03*
X685140Y372110D03*
X666140Y372110D03*
X766470Y363220D03*
X785470Y363220D03*
D10*
X226060Y257150D03*
X226060Y238150D03*
X251460Y257150D03*
X251460Y238150D03*
D12*
X340970Y54610D03*
X321970Y54610D03*
D10*
X251460Y206350D03*
X251460Y187350D03*
D12*
X321970Y105410D03*
X340970Y105410D03*
X951840Y363220D03*
X932840Y363220D03*
X898500Y363220D03*
X879500Y363220D03*
D10*
X200660Y206350D03*
X200660Y187350D03*
D12*
X203860Y105410D03*
X222860Y105410D03*
X203860Y54610D03*
X222860Y54610D03*
D18*
X351880Y414550D03*
X351880Y401850D03*
X351880Y389150D03*
X351880Y376450D03*
X351880Y363750D03*
X351880Y351050D03*
X351880Y338350D03*
X351880Y325650D03*
X351880Y312950D03*
X351880Y300250D03*
X351880Y287550D03*
X351880Y274850D03*
X351880Y262150D03*
X351880Y249450D03*
D19*
X379730Y239450D03*
X392430Y239450D03*
X405130Y239450D03*
X417830Y239450D03*
X430530Y239450D03*
X443230Y239450D03*
X455930Y239450D03*
X468630Y239450D03*
X481330Y239450D03*
X494030Y239450D03*
D18*
X521880Y249450D03*
X521880Y262150D03*
X521880Y274850D03*
X521880Y287550D03*
X521880Y300250D03*
X521880Y312950D03*
X521880Y325650D03*
X521880Y338350D03*
X521880Y351050D03*
X521880Y363750D03*
X521880Y376450D03*
X521880Y389150D03*
X521880Y401850D03*
X521880Y414550D03*
D20*
X421880Y336950D03*
D21*
X894820Y318120D03*
X869420Y318120D03*
X844020Y318120D03*
X768020Y318120D03*
X742620Y318120D03*
X717220Y318120D03*
X691820Y318120D03*
X666420Y318120D03*
X641020Y318120D03*
X615620Y318120D03*
X590220Y318120D03*
X590220Y78120D03*
X615620Y78120D03*
X641020Y78120D03*
X666420Y78120D03*
X691820Y78120D03*
X717220Y78120D03*
X742620Y78120D03*
X768020Y78120D03*
X844020Y78120D03*
X869420Y78120D03*
X894820Y78120D03*
D22*
X112633Y126760D02*
X106141Y126760D01*
X106141Y121760D02*
X112633Y121760D01*
X112633Y116760D02*
X106141Y116760D01*
X106141Y111760D02*
X112633Y111760D01*
X112633Y106760D02*
X106141Y106760D01*
X106141Y101760D02*
X112633Y101760D01*
X112633Y96760D02*
X106141Y96760D01*
X118350Y91043D02*
X118350Y84551D01*
X123350Y84551D02*
X123350Y91043D01*
X128350Y91043D02*
X128350Y84551D01*
X133350Y84551D02*
X133350Y91043D01*
X138350Y91043D02*
X138350Y84551D01*
X143350Y84551D02*
X143350Y91043D01*
X148350Y91043D02*
X148350Y84551D01*
X154067Y96760D02*
X160559Y96760D01*
X160559Y101760D02*
X154067Y101760D01*
X154067Y106760D02*
X160559Y106760D01*
X160559Y111760D02*
X154067Y111760D01*
X154067Y116760D02*
X160559Y116760D01*
X160559Y121760D02*
X154067Y121760D01*
X154067Y126760D02*
X160559Y126760D01*
X148350Y132477D02*
X148350Y138969D01*
X143350Y138969D02*
X143350Y132477D01*
X138350Y132477D02*
X138350Y138969D01*
X133350Y138969D02*
X133350Y132477D01*
X128350Y132477D02*
X128350Y138969D01*
X123350Y138969D02*
X123350Y132477D01*
X118350Y132477D02*
X118350Y138969D01*
D23*
X133350Y111760D03*
D24*
X132140Y379610D03*
X177740Y379610D03*
D25*
X154940Y446365D03*
D26*
X869950Y25000D03*
X838754Y25654D03*
X901146Y25654D03*
D27*
X404250Y93310D03*
X421250Y93310D03*
X404250Y41310D03*
X421250Y41310D03*
D28*
X392750Y67310D03*
D27*
X404250Y172050D03*
X421250Y172050D03*
X404250Y120050D03*
X421250Y120050D03*
D28*
X392750Y146050D03*
M02*
