M48
;GenerationSoftware,Autodesk,EAGLE,9.6.2*%
;CreationDate,2021-01-21T21:58:08Z*%
FMAT,2
ICI,OFF
METRIC,TZ,000.000
T7C0.350
T6C0.800
T5C1.000
T4C1.016
T3C1.200
T2C1.500
T1C3.500
%
G90
M71
T1
X96266Y3810
X96266Y46228
X3810Y3810
X3810Y46228
T2
X2150Y30811
X2150Y18211
T3
X40767Y35179
X43561Y35179
X42164Y33682
X40767Y32258
X43561Y32258
X1450Y14476
X15494Y44577
X13916Y42899
X17072Y42899
X13916Y46355
X17072Y46355
X1450Y7876
T4
X50800Y19558
X48260Y17018
X50800Y17018
X50800Y14478
X48260Y11938
X50800Y11938
X48260Y9398
X50800Y9398
X48260Y6858
X48260Y4318
X50800Y4318
X50800Y6858
X48260Y14478
X17526Y29591
X20066Y29591
X22606Y29591
X25146Y29591
X48260Y19558
T5
X12446Y12065
X14224Y12065
X12446Y10287
X14224Y10287
X7620Y48133
X7620Y45847
X7620Y43561
X23368Y48133
X23368Y45847
X23368Y43561
X23368Y41275
X10160Y43561
X10160Y45847
X9450Y38100
X3350Y38100
X6350Y33300
X20828Y48133
X20828Y45847
X20828Y41275
X10160Y48133
X20828Y43561
T6
X2150Y20511
X2150Y24511
X2150Y28511
X2150Y22511
T7
X92075Y8636
X92075Y7620
X92075Y6604
X92075Y5588
X92075Y4572
X92075Y3556
X92075Y2540
X92075Y1524
X80264Y2032
X80137Y4064
X80137Y6223
X80137Y7874
X80391Y9525
X93853Y6096
X81026Y10922
X82423Y12065
X84455Y12065
X86233Y12065
X91694Y12065
X89662Y12065
X87884Y12065
X93853Y7874
X93599Y9525
X92837Y10922
X12065Y21209
X8255Y21209
X24003Y36195
X82550Y19050
X87630Y19050
X82550Y13970
X87630Y13970
X92710Y13970
X92710Y19050
X97790Y22860
X97790Y17780
X97790Y12700
X97790Y7620
X97790Y25400
X97790Y27940
X97790Y30480
X92710Y24130
X87630Y24130
X82550Y24130
X77470Y24130
X72390Y24130
X67310Y24130
X62230Y24130
X57150Y24130
X92710Y29210
X77470Y19050
X72390Y19050
X77470Y13970
X80010Y21590
X74930Y21590
X85090Y21590
X90170Y21590
X90170Y26670
X85090Y26670
X95250Y26670
X95250Y21590
X95250Y16510
X90170Y16510
X85090Y16510
X80010Y16510
X74930Y16510
X69850Y21590
X64770Y21590
X59690Y21590
X72390Y29210
X67310Y29210
X62230Y29210
X80010Y26670
X95250Y31750
X95250Y11430
X76200Y2540
X71120Y2540
X66040Y2540
X68580Y2540
X73660Y2540
X97790Y10160
X97790Y15240
X97790Y20320
X97790Y33020
X97790Y35560
X97790Y38100
X14351Y3810
X63500Y2540
X60960Y2540
X58420Y2540
X55880Y2540
X53340Y2540
X50800Y2540
X48260Y2540
X45720Y2540
X43180Y2540
X25146Y2540
X16510Y2540
X10160Y16510
X10160Y27940
X10922Y33655
X70104Y35560
X70866Y34163
X70104Y39624
X74041Y39370
X78613Y2540
X12954Y31496
X54229Y39497
X45847Y33782
X28321Y36195
X74930Y26670
X69850Y26670
X64770Y26670
X59690Y26670
X80010Y30480
X82550Y29210
X40640Y2540
X38100Y2540
X35560Y2540
X33020Y2540
X30480Y2540
X27940Y2540
X80010Y34290
X92710Y34290
X31750Y13970
X31750Y17780
X36830Y13970
X36830Y16510
X30480Y7620
X34290Y7620
X38100Y8890
X24130Y13970
X15240Y25400
X15240Y21590
X49530Y30480
X45720Y27940
X77470Y5080
X74930Y5080
X72390Y5080
X69850Y5080
X67310Y5080
X76835Y33909
X74295Y33909
X78486Y31877
X76835Y29718
X61341Y41783
X61341Y40894
X60452Y41783
X60452Y40894
X74295Y29718
X84455Y33909
X86995Y33909
X89535Y33909
X82677Y31877
X91186Y31877
X89535Y29718
X86995Y29718
X84455Y29718
X58039Y39243
X58039Y36957
X58039Y34671
X57277Y31877
X59055Y29718
X57277Y7874
X62230Y41783
X62230Y40894
X25273Y44069
X26162Y44069
X25273Y43180
X26162Y43180
X27051Y43180
X27051Y44069
X21717Y37211
X91059Y41783
X84963Y41783
X41783Y29972
X27686Y8890
X23876Y17399
X54991Y23495
X89916Y39370
X7620Y11834
X8890Y10518
X7620Y13589
X10922Y2286
X17780Y17399
X37211Y36703
X38354Y34290
X21336Y17399
X11835Y14883
X17526Y13081
X19939Y14986
X20447Y8128
X64008Y5207
X49403Y35052
X49276Y39243
X44069Y26035
X97790Y40640
X54356Y31369
X49530Y32512
X39878Y28575
X59055Y5715
X14478Y37973
X13081Y35941
X11938Y37973
X14986Y33655
X19558Y37211
X26162Y34290
X8001Y2286
X14351Y6223
X12954Y2286
X2667Y9906
X5969Y9906
X10160Y19304
X81915Y1524
X81915Y2540
X81915Y3556
X81915Y4572
X81915Y5588
X81915Y6604
X81915Y7620
X81915Y8636
X82296Y9525
X82931Y10414
X83947Y10414
X84963Y10414
X85979Y10414
X86995Y10414
X88011Y10414
X89027Y10414
X90043Y10414
X91059Y10414
X91694Y9525
X54356Y29083
M30